<?xml version="1.0" standalone="no"?>
<!DOCTYPE svg PUBLIC "-//W3C//DTD SVG 20010904//EN"
 "http://www.w3.org/TR/2001/REC-SVG-20010904/DTD/svg10.dtd">
<svg version="1.0" xmlns="http://www.w3.org/2000/svg"
 width="300.000000pt" height="301.000000pt" viewBox="0 0 300.000000 301.000000"
 preserveAspectRatio="xMidYMid meet">
<metadata>
Created by potrace 1.10, written by Peter Selinger 2001-2011
</metadata>
<g transform="translate(0.000000,301.000000) scale(0.100000,-0.100000)"
fill="#000000" stroke="none">
<path d="M1305 2989 c-317 -40 -632 -196 -865 -429 -213 -212 -365 -500 -414
-785 -21 -121 -21 -421 -1 -541 28 -161 106 -364 195 -509 184 -300 466 -525
797 -636 185 -62 260 -73 483 -74 168 0 209 3 299 23 282 63 518 187 718 376
108 102 181 190 243 292 111 180 177 353 210 550 30 173 24 414 -14 574 -116
496 -449 882 -920 1070 -213 84 -494 118 -731 89z m450 -54 c289 -51 551 -189
766 -404 296 -296 443 -670 426 -1081 -11 -268 -81 -497 -220 -720 -170 -272
-442 -489 -746 -594 -177 -62 -283 -79 -476 -80 -196 -1 -301 15 -465 70 -225
75 -400 184 -570 354 -249 248 -386 543 -421 905 -18 188 8 397 73 590 32 95
108 252 155 321 15 23 41 61 57 85 48 72 235 250 331 315 212 144 435 226 705
258 67 8 295 -4 385 -19z"/>
<path d="M1540 2855 c0 -7 7 -16 15 -19 13 -5 15 -19 10 -83 -8 -105 -13 -123
-31 -123 -9 0 -14 -5 -12 -11 5 -16 108 -18 108 -2 0 7 -7 13 -15 13 -14 0
-15 13 -9 93 5 77 10 95 28 109 27 21 22 24 -41 30 -38 4 -53 2 -53 -7z"/>
<path d="M1304 2851 c-10 -10 -3 -21 15 -21 15 0 19 -11 25 -61 10 -100 8
-139 -9 -145 -8 -4 -15 -12 -15 -19 0 -10 9 -11 38 -4 20 5 58 9 83 9 46 0 47
0 57 42 6 23 9 45 6 50 -11 17 -22 7 -28 -26 -5 -26 -13 -36 -33 -41 -14 -3
-30 -2 -35 3 -5 5 -12 48 -16 96 -7 79 -6 89 10 100 10 6 18 14 18 19 0 8
-108 6 -116 -2z"/>
<path d="M1116 2808 c-81 -21 -87 -24 -54 -37 19 -7 29 -26 51 -97 23 -77 24
-90 12 -100 -18 -14 -20 -38 -2 -31 6 2 38 12 69 21 64 18 88 44 88 92 0 30
-25 64 -48 64 -14 0 -15 10 -3 29 12 19 -6 68 -27 73 -9 2 -48 -4 -86 -14z
m74 -57 c0 -27 -22 -47 -40 -36 -14 9 -21 68 -8 76 21 13 48 -10 48 -40z m46
-104 c5 -23 2 -34 -12 -44 -26 -19 -37 -12 -54 36 -12 36 -13 43 -1 51 23 14
59 -10 67 -43z"/>
<path d="M1731 2804 c-32 -27 -51 -76 -51 -132 0 -25 9 -43 34 -68 29 -29 41
-34 79 -34 36 0 48 5 61 25 20 30 20 35 1 35 -8 0 -15 -4 -15 -10 0 -5 -9 -14
-19 -20 -30 -15 -68 7 -81 46 -20 60 24 164 70 164 28 0 61 -30 55 -50 -3 -10
-1 -21 4 -24 12 -8 17 0 25 40 7 29 4 33 -25 43 -55 19 -104 14 -138 -15z"/>
<path d="M938 2749 c-44 -23 -50 -41 -12 -37 22 3 30 -5 60 -62 18 -36 34 -75
34 -86 0 -29 -23 -46 -57 -42 -22 2 -35 16 -67 72 -32 56 -37 72 -28 87 17 27
-3 34 -36 11 -15 -10 -35 -22 -44 -25 -26 -9 -22 -27 6 -27 20 0 32 -14 66
-75 44 -81 71 -102 115 -91 36 9 75 50 75 78 0 13 -16 57 -36 98 -23 48 -33
82 -29 97 7 28 1 28 -47 2z"/>
<path d="M2051 2694 c-25 -32 -27 -74 -5 -115 19 -37 15 -73 -9 -77 -30 -6
-50 18 -44 55 7 39 -17 48 -27 11 -12 -47 -7 -67 24 -83 37 -19 60 -19 88 1
41 28 45 60 18 121 l-25 54 20 20 c27 27 53 8 45 -33 -7 -35 6 -36 28 -3 22
33 21 38 -13 58 -42 25 -76 22 -100 -9z"/>
<path d="M637 2559 c-53 -38 -68 -67 -29 -55 12 4 32 -14 67 -61 68 -91 68
-92 54 -109 -6 -8 -9 -17 -6 -21 7 -6 36 12 82 52 l30 26 -30 -3 c-26 -3 -36
6 -89 75 -43 56 -56 81 -48 89 29 29 104 -37 81 -73 -13 -20 -11 -29 6 -29 18
0 35 31 35 66 0 33 -45 84 -74 84 -12 0 -47 -18 -79 -41z"/>
<path d="M2220 2568 c-38 -26 -80 -91 -80 -124 0 -28 39 -85 71 -103 22 -12
31 -12 58 -1 30 12 39 39 10 31 -49 -14 -58 -12 -74 13 -26 39 -12 92 36 138
44 42 77 48 104 18 12 -14 16 -28 12 -50 -8 -37 2 -38 33 -5 l24 26 -36 35
c-48 48 -107 57 -158 22z"/>
<path d="M1395 2528 c-456 -42 -838 -402 -916 -862 -17 -101 -6 -320 21 -421
25 -95 92 -239 147 -321 168 -247 454 -415 751 -443 197 -18 370 13 547 99
587 285 764 1028 368 1547 -172 227 -444 380 -706 398 -45 4 -91 7 -102 9 -11
2 -60 -1 -110 -6z m350 -68 c309 -83 558 -307 673 -605 44 -115 62 -217 62
-349 0 -150 -19 -247 -79 -399 l-11 -29 -34 21 c-51 32 -70 27 -117 -29 -39
-46 -69 -64 -69 -40 0 6 -6 10 -13 10 -7 0 -42 25 -78 55 -154 131 -214 173
-283 194 -80 25 -109 26 -126 6 -10 -12 -19 -6 -56 40 l-45 55 38 50 c44 59
67 67 140 52 61 -13 130 -61 177 -124 18 -24 52 -69 76 -101 54 -73 108 -115
167 -133 82 -25 90 -19 41 30 -38 37 -48 57 -71 137 -25 87 -73 416 -63 427 5
5 20 -18 116 -184 56 -97 75 -117 147 -156 37 -20 58 -5 25 18 -55 38 -76 104
-133 418 -23 125 -51 198 -87 227 l-25 19 23 25 c23 25 21 59 -4 53 -7 -2 -84
-91 -170 -198 -135 -169 -156 -200 -157 -232 -1 -21 -2 -44 -3 -50 -1 -11 20
-14 58 -9 5 0 3 7 -3 15 -8 9 -8 16 -2 20 5 4 12 2 16 -4 11 -18 43 -11 49 13
6 22 7 22 22 -7 12 -21 19 -25 27 -17 19 19 34 12 29 -14 -3 -20 0 -25 17 -25
23 0 27 -10 9 -28 -9 -9 -7 -16 7 -32 16 -18 16 -20 2 -20 -23 0 -21 -26 3
-50 11 -11 23 -39 26 -62 6 -41 16 -82 48 -195 8 -29 10 -53 5 -53 -11 0 -109
100 -109 112 0 4 -11 21 -24 36 -14 15 -25 30 -25 35 -1 13 -25 35 -33 30 -5
-2 -8 4 -8 13 0 10 -3 15 -6 12 -3 -3 -19 7 -35 23 -16 16 -34 29 -39 29 -6 0
-10 8 -11 18 0 11 -2 12 -6 4 -4 -10 -8 -10 -18 -2 -8 6 -39 14 -69 17 -61 6
-69 14 -33 31 52 25 74 23 116 -11 22 -17 39 -36 37 -42 -2 -5 10 -11 27 -12
17 -1 34 -8 38 -14 10 -18 59 -18 92 -2 27 14 28 15 10 28 -25 20 -32 18 -26
-5 3 -11 1 -20 -5 -20 -6 0 -14 9 -17 20 -7 23 -25 27 -25 5 0 -8 -4 -15 -10
-15 -5 0 -10 9 -10 19 0 25 -18 37 -33 22 -17 -17 -30 -13 -24 9 4 17 0 20
-24 20 -16 0 -29 5 -29 10 0 6 5 10 10 10 6 0 10 5 10 11 0 7 -10 9 -25 7
l-25 -5 2 206 c2 170 3 187 7 96 7 -128 21 -109 21 28 0 84 -1 88 -25 99 -14
6 -25 16 -25 21 0 9 -30 7 -109 -9 l-34 -7 5 66 c3 59 2 67 -14 67 -14 0 -18
-8 -19 -35 -1 -19 -3 -39 -4 -45 -1 -5 -3 -21 -4 -35 -1 -29 -39 -54 -51 -34
-5 7 -6 18 -3 26 3 7 0 13 -5 13 -6 0 -10 21 -10 50 1 50 2 50 35 50 21 0 33
5 33 14 0 7 7 19 15 26 8 7 15 25 15 41 0 28 -53 159 -64 159 -7 0 -29 -52
-52 -118 -11 -32 -12 -53 -5 -72 6 -19 6 -31 -2 -39 -6 -6 -9 -39 -8 -77 l2
-67 -28 9 c-15 5 -58 9 -94 9 -95 0 -100 -6 -97 -147 l2 -113 3 108 c2 66 7
105 13 102 14 -8 13 -395 0 -395 -6 0 -10 37 -10 92 0 50 -3 89 -6 85 -3 -3
-76 82 -161 189 -86 107 -159 194 -162 194 -3 0 -13 -5 -21 -10 -12 -8 -10
-14 13 -38 l28 -29 -26 -17 c-29 -19 -61 -86 -75 -156 -81 -415 -95 -466 -141
-491 -11 -5 -19 -16 -19 -25 0 -13 4 -12 33 2 81 41 101 67 231 297 25 44 56
67 42 31 -7 -19 -31 -177 -41 -274 -4 -36 -18 -103 -31 -150 -20 -72 -30 -91
-64 -121 -22 -20 -40 -39 -40 -43 0 -11 35 -6 85 11 57 19 129 86 221 209 69
90 135 140 200 150 63 9 84 1 128 -51 44 -53 43 -58 -22 -132 l-37 -43 -42 15
c-23 8 -60 17 -81 21 -38 6 -41 4 -98 -57 -107 -114 -166 -159 -284 -214 -30
-14 -65 -36 -77 -47 l-23 -22 -53 57 c-43 46 -59 57 -84 57 -18 0 -35 -4 -38
-10 -11 -18 -21 -11 -39 30 -34 79 -56 149 -71 236 -83 479 198 950 659 1103
133 44 182 50 341 46 103 -2 161 -9 220 -25z m-175 -114 c0 -2 4 -26 10 -55
11 -57 0 -101 -25 -101 -22 0 -36 43 -25 77 4 15 11 40 14 56 4 15 11 27 16
27 6 0 10 -2 10 -4z m-532 -357 c29 -34 52 -65 52 -69 0 -8 -39 -23 -54 -21
-33 6 -79 3 -84 -6 -4 -5 -17 -15 -30 -22 -23 -12 -23 -12 -16 26 4 21 13 52
22 68 15 31 51 85 56 85 2 0 26 -27 54 -61z m1084 34 c18 -21 47 -80 52 -108
3 -11 7 -28 11 -38 9 -22 -13 -20 -35 4 -10 11 -37 18 -81 21 l-66 4 9 -28
c13 -36 23 -42 38 -23 7 8 27 15 45 15 26 0 35 -5 44 -28 6 -15 10 -43 9 -62
-2 -28 1 -35 17 -38 38 -7 40 -22 4 -22 -64 0 -185 109 -176 157 3 18 1 23
-10 19 -13 -5 30 56 64 92 7 8 18 22 23 33 13 24 32 24 52 2z m-364 -138 c2
-77 0 -163 -3 -192 -6 -51 -7 -52 -47 -58 -22 -4 -64 -20 -94 -36 l-54 -28 0
204 c0 234 -8 215 102 239 99 22 93 30 96 -129z m-270 110 l52 -24 0 -196 c0
-107 -2 -195 -5 -195 -2 0 -22 9 -45 21 -22 11 -67 23 -100 26 l-60 6 0 193 0
194 53 0 c34 0 70 -9 105 -25z m289 -273 c-1 -53 -3 -7 -3 103 0 110 2 154 3
97 2 -57 2 -147 0 -200z m-389 -117 c37 -4 78 -13 92 -21 l25 -15 -25 5 c-14
2 -57 8 -97 12 l-71 6 -2 195 c0 107 -1 198 -2 202 0 3 1 11 3 16 2 6 5 -81 6
-192 l3 -201 68 -7z m-294 277 c16 -26 -80 -129 -146 -156 -31 -13 -38 -13
-54 -1 -18 13 -17 14 13 15 35 0 51 16 34 33 -17 17 -13 51 9 77 19 22 48 24
93 5 14 -6 20 -2 24 14 5 21 18 27 27 13z m114 -98 c13 -13 20 -24 16 -24 -5
0 1 -7 12 -15 16 -13 17 -16 4 -24 -14 -10 -60 -4 -70 8 -8 9 -40 10 -40 0 0
-4 -8 -6 -18 -4 -20 3 -46 -13 -55 -35 -4 -12 -6 -11 -6 3 -1 10 -5 15 -11 12
-24 -15 -7 34 20 58 16 15 39 45 50 67 l21 41 27 -32 c15 -17 37 -42 50 -55z
m755 66 c9 -33 9 -35 25 -46 9 -7 12 -16 7 -24 -5 -8 -4 -11 2 -7 15 9 52 -35
49 -58 -4 -26 -18 -29 -41 -8 -11 10 -26 18 -32 19 -30 2 -34 5 -27 17 5 8 2
7 -9 -2 -10 -8 -28 -15 -41 -16 -13 -2 -33 -6 -45 -10 -20 -6 -21 -6 -3 24 9
17 20 31 25 31 4 0 7 5 7 11 0 7 11 22 26 35 14 13 22 24 19 24 -8 0 18 29 26
30 4 0 9 -9 12 -20z m-1043 -184 c0 -12 -18 -46 -40 -76 -43 -58 -48 -53 -30
30 22 97 18 91 45 78 15 -7 25 -19 25 -32z m245 27 c11 -15 17 -15 40 -5 26
12 27 12 21 -13 -6 -23 -4 -25 19 -19 26 6 36 -9 13 -20 -10 -5 -10 -7 0 -12
18 -8 15 -24 -5 -24 -13 0 -14 -3 -5 -12 19 -19 14 -31 -13 -26 -21 5 -25 2
-25 -20 0 -20 -3 -23 -12 -14 -20 20 -35 14 -43 -15 l-7 -28 -13 25 -13 25
-13 -30 -13 -30 -4 28 c-3 23 -6 26 -18 16 -34 -28 -2 -61 50 -49 49 12 88 31
133 67 41 33 72 40 121 27 39 -11 26 -34 -19 -34 -51 0 -118 -32 -170 -81 -21
-20 -42 -33 -45 -30 -4 3 -4 1 -1 -5 3 -6 -7 -25 -23 -43 -17 -18 -30 -36 -30
-40 0 -5 -28 -37 -62 -72 -41 -43 -62 -59 -65 -49 -2 8 8 53 22 99 14 47 25
103 26 125 1 53 12 85 24 67 5 -10 12 -4 21 19 18 41 18 40 -8 40 -20 0 -20 1
-5 18 20 22 22 39 5 45 -8 3 -1 9 15 16 23 9 26 15 21 37 -6 25 -6 25 16 12
19 -11 24 -11 34 5 14 21 16 21 31 0z m1061 -40 c6 -28 14 -56 18 -62 4 -6 3
-11 -2 -11 -6 0 -8 -10 -5 -22 4 -17 -2 -13 -21 14 -14 20 -26 44 -26 53 0 9
-4 13 -10 10 -5 -3 -10 0 -11 7 0 7 -2 21 -4 31 -2 9 3 17 11 17 8 0 14 5 14
11 0 6 6 9 12 7 7 -3 18 -27 24 -55z m-456 -43 c0 -5 -17 -12 -37 -15 -21 -4
-61 -12 -90 -19 -64 -15 -61 -3 5 18 84 26 122 32 122 16z m-254 -76 c14 -18
25 -18 18 0 -4 10 2 14 20 12 15 0 26 -7 26 -15 0 -10 6 -8 20 7 19 20 50 30
50 16 0 -3 -15 -22 -34 -42 -19 -21 -44 -48 -55 -62 l-21 -25 -22 30 c-13 17
-39 48 -58 69 l-35 39 40 -7 c22 -4 45 -14 51 -22z m49 -201 c10 -16 29 -40
43 -55 l25 -27 -32 -30 c-17 -16 -31 -34 -31 -40 0 -18 10 -13 36 19 21 24 29
28 45 20 10 -6 19 -15 19 -20 0 -11 -22 -9 -31 3 -3 5 -13 -3 -23 -17 -9 -14
-22 -26 -29 -26 -7 0 -40 19 -74 43 l-61 43 42 56 c22 31 44 57 47 57 4 1 15
-11 24 -26z m-217 -63 c28 -7 52 -14 52 -17 0 -16 -88 -114 -127 -141 -17 -12
-17 -12 3 -7 16 4 23 0 27 -15 4 -16 2 -18 -13 -10 -13 7 -20 6 -23 -3 -3 -8
-12 -3 -25 14 -20 25 -25 26 -92 21 l-71 -5 62 59 c34 32 65 58 70 57 5 -2 9
2 9 7 0 7 7 7 23 0 22 -11 22 -11 -1 8 l-24 18 24 17 c12 8 30 14 38 12 8 -2
39 -9 68 -15z m433 0 c45 -9 76 -25 145 -76 49 -36 92 -68 96 -72 4 -4 -22 -8
-58 -10 -41 -1 -64 1 -64 8 0 7 8 9 21 5 23 -8 20 3 -9 38 -14 15 -13 17 3 17
34 0 7 12 -31 13 -30 2 -40 -2 -42 -15 -3 -14 1 -16 15 -11 12 4 15 3 8 -5 -9
-9 -87 -35 -90 -29 -1 1 -25 31 -53 66 -40 50 -49 67 -40 78 6 7 18 11 27 9 9
-3 41 -10 72 -16z m-311 -60 l25 -20 -37 0 c-36 0 -66 -20 -31 -20 15 0 14 -4
-7 -21 -17 -14 -21 -22 -12 -26 6 -2 9 -9 6 -15 -4 -7 2 -8 17 -3 13 4 26 12
27 16 2 5 10 9 18 9 18 0 18 15 -1 33 -12 13 -12 16 7 21 30 7 63 -21 47 -41
-6 -7 -18 -13 -25 -13 -8 0 -14 -4 -14 -9 0 -5 -10 -11 -22 -15 -20 -5 -21 -8
-8 -17 12 -9 10 -10 -8 -6 -18 4 -21 3 -12 -8 8 -10 8 -15 -1 -21 -8 -4 -9 -3
-5 4 9 16 -7 15 -22 0 -10 -10 -16 -7 -28 10 -15 22 -43 26 -56 7 -4 -5 -6 0
-6 12 2 14 7 19 17 15 9 -3 12 -1 7 6 -9 15 -1 15 24 2 13 -7 21 -7 25 0 3 5
-1 10 -9 10 -8 0 -17 4 -20 9 -6 9 60 101 72 101 4 0 18 -9 32 -20z m218 -34
c7 -4 10 -12 7 -17 -4 -5 0 -9 7 -9 7 0 21 -12 31 -25 16 -22 16 -25 2 -25 -9
0 -14 4 -11 9 3 5 -21 7 -54 6 -43 -2 -63 2 -72 13 -11 13 -10 14 11 7 20 -6
23 -4 18 9 -4 9 -4 22 -1 29 5 14 42 16 62 3z m-98 -57 c28 -21 28 -23 14 -50
-8 -16 -21 -29 -29 -29 -20 0 -19 17 3 29 13 8 15 14 6 27 -6 10 -16 19 -22
20 -7 1 -8 0 -2 -3 16 -7 12 -43 -5 -43 -8 0 -15 6 -15 14 0 8 -6 16 -12 19
-10 3 -10 7 1 20 18 22 26 21 61 -4z m-535 -48 c-3 -12 -13 -21 -20 -21 -8 0
-19 -9 -25 -20 -6 -11 -20 -20 -31 -20 -27 0 -14 21 36 59 44 32 50 33 40 2z
m1288 13 c18 -9 34 -18 36 -20 5 -4 -66 -119 -96 -154 -14 -17 -34 -30 -45
-30 -14 0 -18 -5 -14 -18 8 -23 -117 -147 -139 -139 -8 4 -16 -2 -20 -13 -15
-46 -241 -148 -390 -175 -120 -23 -316 -16 -430 14 -111 30 -269 109 -356 179
-68 54 -179 168 -179 184 0 4 -12 20 -26 35 -34 37 -57 81 -50 99 8 22 57 18
63 -6 3 -11 11 -20 17 -20 19 0 99 -87 92 -99 -4 -7 1 -11 12 -11 10 0 22 -3
26 -7 3 -4 13 -8 21 -9 15 -2 75 -42 75 -50 0 -3 -5 -14 -10 -24 -9 -17 -5
-22 26 -35 28 -11 35 -19 31 -34 -3 -13 1 -21 15 -24 15 -4 18 -11 13 -26 -6
-20 -3 -21 57 -21 35 0 77 4 95 9 20 6 35 5 41 -1 7 -7 14 -3 22 12 11 21 10
22 -8 18 -18 -5 -19 -3 -9 13 6 10 20 19 29 19 10 0 18 3 18 8 0 8 52 34 57
28 3 -2 -6 -13 -18 -25 -19 -17 -20 -21 -6 -21 9 0 21 9 27 20 12 23 32 27 24
5 -8 -19 6 -19 34 1 17 11 26 13 36 5 7 -6 16 -7 20 -3 5 4 6 -4 4 -17 -1 -13
2 -26 8 -28 16 -6 26 27 13 43 -16 20 -4 31 43 37 27 4 49 14 61 28 16 20 26
22 85 20 37 -1 69 -4 71 -7 2 -2 -1 -14 -7 -26 -6 -13 -11 -17 -11 -10 -1 18
-52 15 -67 -5 -9 -12 -13 -14 -14 -5 0 8 -5 10 -12 5 -7 -4 -20 -8 -28 -8 -8
-1 -24 -2 -35 -3 -11 -1 -25 -13 -32 -27 -10 -23 -5 -34 10 -18 10 10 98 12
91 2 -3 -5 2 -9 11 -9 15 0 15 -1 1 -16 -18 -17 -13 -34 10 -34 8 0 14 9 14
19 0 12 17 30 45 48 24 15 43 33 42 38 0 6 4 20 11 33 8 14 9 22 2 22 -5 0
-10 5 -10 11 0 7 12 9 35 5 24 -5 35 -3 35 5 0 7 3 9 7 6 3 -4 12 1 19 11 11
15 13 15 19 -10 4 -16 11 -25 16 -22 5 3 9 -1 9 -8 0 -7 -10 -19 -21 -26 -21
-13 -21 -12 -15 15 6 21 5 25 -4 17 -7 -7 -13 -23 -13 -37 -1 -14 -5 -23 -9
-20 -5 2 -8 -3 -8 -12 0 -9 -5 -13 -11 -10 -6 4 -8 14 -4 24 5 13 4 14 -7 3
-10 -10 -10 -17 0 -35 12 -21 12 -21 -7 2 -12 12 -18 27 -15 32 3 5 -2 9 -10
9 -10 0 -13 -6 -9 -16 4 -11 -3 -24 -18 -36 l-24 -20 28 6 c23 6 29 2 39 -21
6 -16 11 -31 10 -35 -1 -5 7 -8 18 -8 22 0 26 20 8 38 -9 9 -7 12 9 12 12 0
25 5 28 10 7 11 44 8 78 -5 9 -4 17 -18 17 -31 0 -15 6 -24 15 -24 24 0 17 25
-16 61 -30 32 -31 34 -10 37 11 2 21 10 21 18 0 25 34 49 69 49 34 0 52 -17
32 -29 -6 -4 -8 -13 -4 -21 3 -8 0 -15 -6 -15 -6 0 -11 6 -11 13 0 6 -11 17
-25 24 -28 12 -33 2 -10 -17 8 -7 15 -21 15 -31 0 -17 3 -17 20 -7 15 10 22
10 32 0 17 -17 26 -15 24 5 0 10 9 22 22 28 25 11 29 25 8 25 -8 0 -22 -10
-30 -22 -9 -12 -19 -19 -23 -15 -4 4 1 15 10 24 15 16 15 18 0 35 -14 16 -14
22 -3 43 7 14 17 25 22 25 11 0 10 -24 -2 -36 -16 -16 -1 -44 22 -44 15 0 18
4 13 18 -4 9 -10 27 -12 40 -4 17 -2 21 11 16 11 -4 16 -1 16 10 0 9 -4 16
-10 16 -5 0 -10 7 -10 15 0 17 4 18 38 9 28 -8 28 -21 0 -51 -12 -13 -18 -26
-14 -30 4 -5 21 8 37 27 l29 35 -25 22 -25 22 22 12 c13 6 44 33 69 60 25 27
49 49 53 49 4 0 21 -7 39 -16z m-837 -41 c-3 -8 -6 -43 -6 -77 l0 -63 -42 1
c-37 1 -44 5 -52 29 -15 42 3 82 37 82 21 -1 27 4 27 20 0 27 8 35 27 28 8 -3
12 -12 9 -20z m434 7 c0 -4 -9 -27 -20 -51 -11 -24 -20 -56 -20 -71 0 -18 -5
-28 -15 -28 -21 0 -19 36 5 88 l19 42 -29 0 c-22 0 -30 5 -30 18 0 14 7 17 45
14 25 -2 45 -8 45 -12z m-730 -5 c0 -11 -11 -15 -40 -15 -29 0 -40 -4 -40 -15
0 -10 11 -15 35 -15 24 0 35 -5 35 -15 0 -10 -11 -15 -35 -15 -28 0 -35 -4
-35 -20 0 -17 7 -20 40 -20 29 0 40 -4 40 -15 0 -12 -13 -15 -55 -15 l-55 0 0
80 0 80 55 0 c42 0 55 -3 55 -15z m162 -9 c-2 -9 2 -16 8 -16 5 0 10 -7 10
-15 0 -8 -4 -15 -10 -15 -14 0 -12 -58 2 -62 7 -3 9 -12 5 -22 -5 -13 -11 -15
-26 -7 -35 19 -32 170 3 158 6 -2 10 -11 8 -21z m342 8 c11 -30 6 -53 -20 -83
l-26 -31 26 0 c16 0 26 -6 26 -15 0 -11 -12 -15 -45 -15 -55 0 -58 14 -15 63
17 19 30 42 30 50 0 22 -19 31 -26 13 -7 -19 -34 -21 -34 -3 0 35 72 53 84 21z
m106 -3 c14 -27 13 -114 -2 -129 -18 -18 -56 -14 -68 7 -13 25 -13 82 0 115
12 32 54 36 70 7z m218 7 c7 -7 12 -37 12 -68 0 -31 -5 -61 -12 -68 -18 -18
-65 -15 -72 4 -9 23 1 30 23 17 21 -13 31 -8 31 15 0 8 -6 12 -15 8 -21 -8
-45 21 -45 53 0 32 16 51 45 51 12 0 26 -5 33 -12z m-988 -36 c0 -29 -29 -62
-55 -62 -29 0 -55 9 -55 20 0 13 44 20 51 8 5 -8 14 -1 26 20 20 36 33 41 33
14z m558 -4 c16 -14 15 -34 -4 -63 l-16 -24 -22 26 c-30 34 -25 87 8 77 11 -4
27 -11 34 -16z m-301 -3 c8 -22 -4 -30 -22 -15 -11 9 -19 10 -26 3 -8 -8 0
-14 25 -23 41 -13 47 -37 17 -64 -14 -13 -24 -14 -44 -7 -14 5 -28 14 -31 20
-9 14 14 25 27 12 13 -13 37 -15 37 -2 0 5 -13 14 -30 20 -22 7 -30 16 -30 34
0 13 3 27 7 30 13 13 64 7 70 -8z m-403 -20 c-4 -8 -12 -15 -19 -15 -7 0 -15
-7 -19 -15 -6 -16 -46 -21 -46 -6 0 11 60 51 77 51 7 0 10 -7 7 -15z m1 -45
c-3 -4 2 -10 10 -14 18 -7 20 -26 3 -26 -7 0 -22 7 -32 15 -16 12 -17 17 -6
30 12 15 35 11 25 -5z m149 11 c8 -13 -4 -42 -15 -35 -12 7 -12 44 0 44 6 0
12 -4 15 -9z m506 -31 c0 -13 -7 -20 -20 -20 -19 0 -27 20 -13 33 13 14 33 6
33 -13z m-501 -24 c24 5 30 2 36 -16 4 -14 12 -19 22 -15 13 4 14 3 4 -9 -7
-8 -9 -25 -5 -41 5 -20 9 -23 15 -13 6 9 9 7 9 -10 0 -15 4 -21 12 -16 8 5 9
2 5 -9 -3 -9 -2 -19 3 -22 6 -4 10 2 10 12 0 14 2 15 9 4 13 -21 -7 -37 -43
-34 -57 5 -96 15 -90 24 3 5 -2 9 -10 9 -10 0 -13 6 -10 15 4 10 0 15 -14 15
-12 0 -24 5 -28 12 -11 17 -12 68 -2 68 4 0 8 8 8 18 0 10 5 23 12 30 10 10
14 8 20 -8 6 -16 13 -18 37 -14z m-88 -6 c6 0 7 -4 4 -10 -10 -17 -35 -11 -35
8 0 25 14 38 18 18 2 -9 8 -16 13 -16z m989 -16 c0 -8 -6 -13 -12 -11 -8 1
-14 -11 -16 -28 -2 -16 -11 -35 -20 -42 -25 -18 -36 -16 -22 5 7 9 -1 2 -19
-15 -17 -18 -39 -33 -48 -33 -13 0 -6 11 25 40 24 23 47 38 51 35 5 -2 11 6
13 20 3 14 1 25 -6 25 -6 0 -3 7 7 15 21 16 47 10 47 -11z m-620 1 c8 -9 21
-13 36 -9 15 4 24 2 24 -6 0 -7 -7 -10 -16 -6 -8 3 -12 2 -9 -3 3 -5 -6 -22
-20 -37 -15 -16 -23 -20 -19 -11 5 15 3 16 -19 8 -21 -8 -25 -7 -20 4 3 8 10
15 17 15 7 0 6 4 -3 9 -8 5 -11 16 -6 30 8 25 18 27 35 6z m-84 -44 c29 -22
21 -33 -14 -20 -22 8 -29 7 -43 -12 l-16 -22 -18 27 c-10 15 -24 25 -31 22
-15 -6 -19 6 -7 17 15 15 105 7 129 -12z m207 2 c-8 -23 -34 -53 -45 -53 -5 0
-6 5 -3 10 4 6 2 17 -5 25 -9 10 -7 16 7 24 29 17 53 14 46 -6z"/>
<path d="M1580 2446 c0 -41 22 -49 40 -16 6 12 7 20 1 20 -5 0 -12 -6 -14 -12
-3 -7 -6 -3 -6 9 -2 38 -21 37 -21 -1z"/>
<path d="M1460 2465 c0 -10 63 -65 68 -60 6 6 -48 65 -60 65 -4 0 -8 -2 -8 -5z"/>
<path d="M1539 2438 c4 -12 14 -24 21 -26 9 -3 11 1 7 12 -4 10 -7 22 -7 27 0
5 -7 9 -15 9 -11 0 -12 -6 -6 -22z"/>
<path d="M1644 2429 c-24 -25 -26 -31 -14 -39 19 -12 21 -12 40 0 8 5 11 12 7
16 -3 4 -13 1 -22 -6 -23 -19 -18 0 7 27 12 13 19 25 16 28 -2 3 -18 -9 -34
-26z"/>
<path d="M1453 2410 c14 -11 31 -20 39 -20 18 1 -30 40 -49 40 -11 0 -7 -7 10
-20z"/>
<path d="M1721 2403 c-29 -15 -48 -29 -43 -31 11 -3 112 45 112 53 0 10 -17 4
-69 -22z"/>
<path d="M1346 2405 c-3 -10 -2 -14 5 -10 6 4 37 -3 70 -15 72 -27 90 -20 23
9 -71 32 -90 35 -98 16z"/>
<path d="M1370 2370 c0 -5 8 -10 18 -10 9 0 28 -3 42 -5 22 -5 21 -3 -5 9 -36
18 -55 20 -55 6z"/>
<path d="M1777 2360 c-38 -10 -71 -21 -74 -24 -16 -16 9 -13 87 9 46 13 88 21
94 18 5 -3 6 -1 2 5 -9 16 -28 14 -109 -8z"/>
<path d="M1265 2330 c-4 -6 32 -10 96 -10 56 0 100 2 98 4 -10 9 -189 15 -194
6z"/>
<path d="M1708 2313 c-16 -2 -28 -9 -28 -14 0 -11 3 -11 70 6 46 11 49 13 20
13 -19 -1 -47 -3 -62 -5z"/>
<path d="M1383 2303 c-24 -2 -43 -8 -43 -14 0 -11 11 -11 74 -3 25 4 46 11 46
15 0 5 -8 8 -17 7 -10 -1 -37 -3 -60 -5z"/>
<path d="M1730 2250 c-41 -6 -43 -7 -19 -14 33 -10 85 -4 82 9 -2 12 -9 13
-63 5z"/>
<path d="M1378 2233 c-35 -14 -51 -33 -29 -33 12 0 101 40 101 45 0 9 -35 3
-72 -12z"/>
<path d="M1650 1981 c0 -10 35 -21 65 -20 11 0 3 6 -20 14 -48 17 -45 17 -45
6z"/>
<path d="M1610 1933 c-21 -15 -21 -17 -5 -26 14 -8 15 -11 4 -19 -10 -7 -7 -8
11 -4 14 3 34 -2 44 -10 11 -8 31 -14 45 -13 24 0 24 1 6 9 -20 9 -20 9 0 10
15 0 11 5 -14 16 -19 8 -41 12 -49 9 -25 -9 -36 7 -12 20 18 9 19 13 7 18 -8
3 -25 -2 -37 -10z"/>
<path d="M1601 1856 c-24 -13 -24 -13 12 -18 29 -3 34 -1 25 9 -9 11 -6 12 16
3 15 -5 39 -10 54 -9 19 0 13 4 -23 14 -61 17 -55 17 -84 1z"/>
<path d="M1605 1822 c-17 -11 -11 -37 7 -34 9 1 32 -7 52 -19 19 -11 43 -19
53 -17 12 3 4 9 -22 17 -22 8 -51 22 -64 32 -27 22 -16 26 14 6 27 -19 85 -38
85 -28 0 4 -23 16 -52 27 -29 10 -55 20 -58 21 -3 2 -10 -1 -15 -5z"/>
<path d="M1598 1758 c-4 -9 7 -13 41 -15 42 -2 44 0 27 13 -23 16 -40 19 -31
4 8 -13 -8 -13 -22 1 -7 7 -12 7 -15 -3z"/>
<path d="M1650 1718 c0 -4 -8 -5 -17 -1 -10 3 -15 2 -10 -2 4 -5 31 -10 60
-11 28 -1 41 1 28 3 -16 3 -20 7 -12 13 8 4 0 7 -18 6 -17 -1 -31 -4 -31 -8z"/>
<path d="M1594 1701 c4 -6 1 -11 -6 -11 -10 0 -10 -2 1 -9 8 -5 11 -16 6 -30
-8 -26 1 -26 56 -2 43 20 44 20 19 31 -28 12 2 7 33 -5 9 -4 17 -3 17 3 0 14
-59 23 -80 12 -24 -13 -31 -13 -27 1 1 6 -4 14 -12 17 -8 3 -11 0 -7 -7z"/>
<path d="M1374 1989 c-5 -9 1 -10 20 -5 18 4 25 3 21 -4 -3 -5 -15 -10 -26
-10 -10 0 -19 -4 -19 -10 0 -14 10 -12 49 9 33 18 33 18 10 24 -35 10 -47 8
-55 -4z"/>
<path d="M1467 1964 c3 -7 1 -14 -5 -14 -6 0 -12 5 -14 10 -2 6 -19 3 -43 -9
-22 -11 -33 -21 -25 -21 10 -1 9 -4 -5 -11 -15 -7 -11 -8 15 -4 l35 6 -27 -16
c-15 -9 -25 -22 -24 -32 2 -10 -2 -22 -8 -26 -7 -6 -4 -7 7 -3 10 3 24 6 30 6
7 0 6 4 -3 10 -28 18 9 11 61 -11 49 -22 68 -21 54 1 -4 7 -17 9 -29 6 -20 -5
-20 -5 -2 9 14 11 16 15 5 15 -12 0 -12 2 1 10 24 16 2 11 -31 -6 -17 -8 -33
-13 -36 -10 -3 3 11 13 31 22 25 12 32 20 24 26 -7 4 -20 5 -29 3 -9 -3 -27
-1 -40 4 -13 5 -19 10 -12 10 6 1 19 4 29 8 12 4 15 3 10 -5 -8 -14 20 -6 43
12 12 9 13 8 8 -6 -4 -12 -2 -15 9 -11 20 7 13 24 -14 34 -16 6 -20 5 -15 -7z"/>
<path d="M1375 1830 c-18 -8 -18 -9 5 -10 l25 -1 -25 -14 c-22 -13 -23 -14 -5
-15 17 0 18 -2 5 -10 -11 -8 -7 -9 15 -4 23 4 26 3 15 -5 -19 -13 0 -14 20 -1
13 9 13 10 0 10 -13 0 -13 1 0 10 11 8 7 9 -14 4 -19 -5 -27 -3 -23 3 11 18
43 21 73 7 16 -7 22 -13 14 -13 -13 -1 -13 -2 0 -11 8 -5 22 -9 30 -9 10 0 8
3 -5 9 -13 6 -15 9 -5 9 13 1 13 2 0 11 -12 8 -12 10 5 10 20 1 20 1 0 9 -11
4 -39 7 -62 6 -24 -2 -40 1 -37 6 6 11 -4 11 -31 -1z"/>
<path d="M1420 1713 c-8 -3 -25 -10 -38 -14 -13 -5 -20 -14 -17 -19 4 -6 12
-4 21 5 9 8 19 15 24 15 5 0 17 3 27 6 10 3 7 -2 -7 -10 -20 -12 -22 -15 -7
-16 10 0 16 -4 13 -9 -3 -4 12 -15 34 -24 22 -8 38 -11 35 -6 -4 5 -2 9 3 9 6
0 8 9 5 20 -5 18 -7 18 -26 5 -32 -22 -43 -18 -16 6 l24 20 -23 -11 c-13 -7
-26 -9 -29 -6 -3 3 2 9 11 12 14 5 15 9 4 15 -15 10 -17 10 -38 2z"/>
<path d="M1295 1221 c-19 -8 -19 -8 2 -19 30 -17 40 -15 46 8 6 22 -11 25 -48
11z"/>
<path d="M1168 1178 c-21 -21 -38 -40 -38 -42 0 -2 13 -3 30 -2 22 1 30 6 30
19 0 10 5 27 11 39 17 32 7 28 -33 -14z"/>
<path d="M1735 1220 c-9 -15 3 -30 24 -30 10 0 21 9 24 20 4 16 0 20 -18 20
-13 0 -27 -4 -30 -10z"/>
<path d="M2264 1027 c-7 -19 1 -62 12 -60 14 3 17 23 3 23 -7 0 -2 11 11 25
l23 25 -22 0 c-12 0 -24 -6 -27 -13z"/>
<path d="M660 1019 c0 -18 48 -70 55 -59 9 14 -18 51 -34 45 -9 -3 -11 0 -7
10 3 8 1 15 -4 15 -6 0 -10 -5 -10 -11z"/>
<path d="M780 881 c0 -5 18 -28 40 -52 22 -25 39 -38 39 -29 0 8 -15 32 -34
53 -36 38 -45 44 -45 28z"/>
<path d="M900 795 c0 -2 10 -25 22 -50 24 -49 48 -61 41 -20 -3 13 -10 23 -17
22 -6 -1 -10 5 -9 13 2 8 -6 21 -17 28 -11 7 -20 10 -20 7z"/>
<path d="M1970 749 c1 -40 21 -72 42 -64 8 3 22 19 32 36 l18 30 -25 -6 c-18
-5 -30 -1 -46 16 l-21 23 0 -35z"/>
<path d="M1382 738 c-18 -18 -15 -38 6 -38 12 0 17 8 17 25 0 28 -5 31 -23 13z"/>
<path d="M1836 703 c-9 -22 -8 -23 18 -23 34 0 56 10 56 25 0 19 -67 17 -74
-2z"/>
<path d="M1258 663 c15 -6 16 -65 0 -81 -9 -9 -5 -12 18 -11 16 0 23 3 17 6
-7 2 -13 19 -13 36 l0 32 25 -38 c14 -20 30 -37 34 -37 5 0 11 23 13 50 3 45
1 50 -17 49 -11 0 -14 -3 -7 -6 6 -2 12 -17 12 -31 l-1 -27 -27 33 c-15 18
-36 32 -47 31 -11 0 -14 -3 -7 -6z"/>
<path d="M1378 663 c6 -2 12 -22 12 -43 0 -21 -6 -41 -12 -43 -7 -3 8 -6 34
-6 43 -1 77 18 50 27 -7 2 -12 10 -12 17 0 8 -7 11 -20 8 -15 -4 -20 0 -20 16
0 12 6 21 15 21 8 0 15 -4 15 -10 0 -5 5 -10 10 -10 6 0 10 7 10 15 0 11 -12
15 -47 14 -27 0 -42 -3 -35 -6z m70 -70 c2 -8 -5 -13 -17 -13 -12 0 -21 6 -21
16 0 18 31 15 38 -3z"/>
<path d="M1485 620 c0 -49 1 -50 30 -49 17 0 24 3 18 6 -17 6 -16 33 1 33 7 0
19 7 26 15 18 22 -4 45 -44 45 -31 0 -31 -1 -31 -50z"/>
<path d="M1600 644 c-6 -14 -10 -28 -10 -31 0 -4 -7 -15 -17 -25 -15 -17 -15
-18 10 -18 19 0 25 4 21 15 -4 10 0 15 11 15 11 0 15 -5 11 -15 -4 -12 6 -15
63 -15 55 0 70 3 75 16 9 25 -2 30 -18 9 -7 -10 -18 -15 -24 -11 -16 9 -15 59
0 74 9 9 4 12 -22 11 -19 0 -29 -3 -22 -6 7 -2 12 -22 12 -45 0 -32 -3 -39
-17 -36 -11 2 -24 21 -33 46 -17 48 -27 52 -40 16z"/>
<path d="M1434 975 c-9 -21 3 -45 21 -45 10 0 15 10 15 30 0 32 -26 43 -36 15z"/>
<path d="M1775 1028 c-9 -24 -1 -103 10 -103 14 0 19 95 6 108 -7 7 -12 5 -16
-5z"/>
<path d="M1992 1023 c-12 -22 -5 -43 14 -43 8 0 14 10 14 24 0 31 -16 42 -28
19z"/>
<path d="M2475 2431 c8 -26 -139 -134 -172 -126 -30 7 -29 3 6 -46 33 -44 46
-49 46 -18 0 12 14 32 30 45 l31 23 27 -34 28 -35 -28 -25 c-21 -19 -35 -23
-57 -19 -32 7 -31 5 4 -48 28 -42 51 -50 47 -16 -1 17 15 35 68 75 40 30 79
52 90 50 11 -1 21 1 23 6 4 13 -56 88 -63 77 -3 -5 -3 -15 1 -21 7 -11 -42
-58 -61 -58 -5 -1 -20 14 -33 32 l-23 32 28 23 c17 14 36 21 49 17 35 -8 35 5
1 46 -35 42 -52 50 -42 20z"/>
<path d="M394 2306 c-4 -9 0 -24 8 -34 8 -9 43 -50 77 -89 76 -86 73 -103 -15
-103 -50 0 -54 2 -54 23 0 35 -32 59 -71 55 -28 -2 -40 -12 -73 -60 -37 -54
-44 -85 -13 -60 17 15 177 -85 177 -110 0 -29 16 -21 44 23 29 43 29 57 0 41
-12 -7 -26 -4 -51 10 -43 26 -33 42 23 34 60 -8 87 5 118 57 32 55 34 72 6 55
-16 -11 -22 -9 -34 7 -19 25 -19 35 -2 58 18 24 66 13 66 -14 0 -30 15 -23 44
21 36 55 35 72 -3 48 -16 -9 -37 -7 -113 14 -51 14 -101 29 -110 33 -12 5 -20
2 -24 -9z m118 -65 c4 -3 1 -14 -6 -23 -12 -16 -15 -15 -42 13 l-29 31 35 -7
c19 -4 38 -10 42 -14z m-144 -137 c24 -17 29 -52 8 -60 -13 -5 -86 32 -86 45
0 13 24 31 40 31 8 0 26 -7 38 -16z"/>
<path d="M2542 2140 c-35 -22 -72 -74 -72 -103 0 -37 31 -85 62 -96 46 -16 79
-13 122 12 53 30 78 66 78 113 0 81 -108 124 -190 74z m139 -20 c64 -35 -46
-157 -134 -148 -59 6 -46 76 23 122 32 21 56 31 83 35 5 0 17 -4 28 -9z"/>
<path d="M205 1928 c-2 -7 -13 -44 -25 -81 -12 -38 -19 -71 -15 -75 4 -4 10
-1 12 6 7 18 27 15 120 -15 72 -24 83 -30 83 -50 0 -45 16 -22 44 63 23 71 26
88 15 96 -56 36 -73 34 -41 -7 21 -26 20 -32 -3 -82 -1 -3 -79 18 -83 22 -10
9 21 45 38 45 34 0 22 19 -20 31 -40 12 -66 5 -41 -10 7 -5 11 -17 9 -27 -3
-15 -11 -18 -38 -16 -19 1 -38 6 -43 11 -14 14 11 61 33 61 28 0 25 14 -5 28
-32 15 -35 15 -40 0z"/>
<path d="M2635 1863 c-44 -24 -64 -54 -65 -96 0 -49 13 -73 50 -92 59 -31 173
-6 200 44 13 25 13 87 0 112 -25 46 -126 64 -185 32z m163 -50 c17 -24 15 -31
-16 -63 -35 -34 -129 -58 -162 -40 -34 18 -24 69 18 93 66 39 134 43 160 10z"/>
<path d="M370 1660 c-10 -18 -21 -20 -104 -20 -74 0 -95 3 -100 15 -12 32 -26
13 -26 -35 0 -48 12 -66 24 -35 3 10 19 15 46 15 l40 0 0 -45 0 -45 -40 0
c-27 0 -43 5 -46 15 -13 32 -24 13 -24 -40 0 -30 5 -55 10 -55 6 0 10 7 10 15
0 18 32 26 85 21 22 -2 59 -4 83 -5 30 -1 42 -5 42 -16 0 -8 5 -15 10 -15 6 0
10 25 10 55 0 53 -11 72 -24 40 -3 -10 -19 -15 -46 -15 l-40 0 0 45 0 45 39 0
c29 0 42 -6 54 -22 14 -22 15 -20 18 35 4 63 -3 80 -21 47z"/>
<path d="M2600 1526 c0 -47 4 -87 8 -90 5 -3 28 -8 50 -12 52 -8 57 10 7 26
-31 10 -35 16 -35 46 l0 34 99 0 c92 0 99 -1 104 -21 3 -12 9 -19 14 -16 12 8
7 111 -6 115 -6 2 -11 -3 -11 -11 0 -22 -22 -27 -115 -27 -75 0 -84 2 -90 20
-14 44 -25 16 -25 -64z"/>
<path d="M236 1364 c-3 -9 -6 -24 -6 -34 0 -15 -9 -19 -47 -22 l-48 -3 38 -22
c37 -23 38 -23 22 -52 -23 -46 -18 -55 16 -27 37 31 41 32 64 6 31 -34 47 -25
24 15 l-21 35 39 22 38 23 -45 5 c-42 5 -45 7 -48 38 -3 34 -16 42 -26 16z"/>
<path d="M2736 1345 c-7 -34 -8 -35 -54 -35 l-47 0 35 -22 c19 -12 37 -23 39
-25 3 -2 -3 -18 -12 -37 -20 -43 -12 -51 21 -20 15 13 29 24 32 24 3 0 17 -11
32 -24 32 -30 42 -23 23 15 -21 39 -20 42 23 67 l37 22 -47 0 c-46 0 -47 1
-54 35 -3 19 -10 35 -14 35 -4 0 -11 -16 -14 -35z"/>
<path d="M330 1139 c0 -18 -94 -52 -120 -44 -24 8 -24 7 -5 -39 24 -56 37 -57
135 -6 17 9 17 77 0 94 -7 7 -10 5 -10 -5z m8 -56 c-2 -10 -12 -18 -23 -18
-11 -1 -31 -8 -44 -17 -14 -10 -28 -15 -33 -12 -15 9 -8 34 10 36 32 2 37 4
57 16 28 16 37 15 33 -5z"/>
<path d="M2640 1116 c0 -8 -3 -22 -6 -30 -5 -12 -2 -15 10 -10 21 8 116 -25
116 -41 0 -21 -58 -24 -77 -3 -25 28 -60 23 -78 -12 -20 -38 -19 -49 4 -43 19
5 95 -28 106 -47 12 -19 -23 -22 -85 -6 -34 9 -64 16 -66 16 -14 0 3 -24 53
-74 41 -41 59 -53 65 -44 13 21 9 28 -12 28 -13 0 -20 7 -20 20 0 21 24 28 35
10 11 -18 21 -10 43 35 26 53 26 56 10 54 -27 -3 -48 1 -48 11 0 6 16 10 35
10 37 0 48 12 60 67 5 27 4 32 -9 27 -18 -7 -116 24 -116 37 0 5 -4 9 -10 9
-5 0 -10 -6 -10 -14z m30 -101 c7 -9 10 -18 6 -22 -9 -10 -58 16 -51 27 9 15
31 12 45 -5z"/>
<path d="M364 1039 c-13 -21 -101 -59 -119 -53 -13 6 -14 3 -4 -20 12 -26 29
-35 29 -16 0 5 9 14 20 20 16 8 21 6 31 -11 13 -24 -2 -41 -33 -36 -21 3 -23
-2 -14 -30 8 -27 21 -30 30 -8 6 18 93 58 107 49 12 -7 11 17 -1 36 -9 13 -12
13 -21 -2 -13 -23 -45 -23 -53 -1 -7 18 9 33 37 33 18 0 22 17 8 39 -7 11 -10
11 -17 0z"/>
<path d="M345 879 c-39 -35 -44 -58 -17 -82 23 -21 54 -22 92 -2 48 25 64 70
34 99 -25 26 -69 19 -109 -15z m100 1 c18 -30 -73 -96 -97 -72 -16 16 -3 39
34 62 37 22 54 25 63 10z"/>
<path d="M2522 868 c-14 -14 -15 -37 -2 -58 6 -10 26 -15 60 -15 55 0 71 -17
24 -25 l-29 -6 23 -13 c29 -15 52 0 52 34 0 35 -24 48 -75 41 -37 -6 -45 -4
-45 8 0 10 9 16 21 16 18 0 19 2 9 15 -15 18 -22 19 -38 3z"/>
<path d="M480 816 c0 -17 -73 -66 -100 -66 -20 0 -20 -1 -4 -25 18 -27 34 -33
34 -11 0 7 7 19 15 26 21 17 20 -8 0 -38 -19 -26 -12 -43 34 -86 29 -27 31
-28 31 -9 0 11 7 26 15 33 12 10 15 10 15 -3 0 -9 -4 -27 -9 -40 -7 -19 -5
-29 14 -50 27 -32 31 -33 38 -7 6 24 25 26 34 4 4 -10 -1 -22 -10 -29 -24 -17
-22 -20 28 -55 40 -28 45 -29 45 -12 0 29 26 48 45 32 17 -14 3 -50 -20 -50
-25 0 -17 -14 23 -40 50 -34 49 -34 55 -10 7 26 37 27 37 1 0 -11 -6 -22 -12
-25 -9 -3 -7 -9 6 -20 25 -20 40 -20 33 -1 -4 8 3 40 13 71 11 32 20 61 20 66
0 19 -26 5 -71 -37 -51 -48 -69 -55 -69 -29 0 23 59 94 78 94 13 1 12 5 -7 21
l-24 20 -13 -31 c-12 -27 -16 -30 -34 -20 -24 13 -22 29 6 44 10 6 21 12 24
14 6 4 -31 32 -42 32 -4 0 -8 -5 -8 -11 0 -18 -63 -99 -77 -99 -22 0 -15 28
23 87 19 30 32 58 29 61 -3 4 -35 -9 -71 -27 -36 -18 -67 -32 -69 -29 -2 2 -1
17 4 34 5 19 15 30 30 32 12 2 27 14 33 27 9 21 6 30 -31 72 -24 26 -50 60
-59 75 -18 30 -32 36 -32 14z m40 -46 c0 -10 -26 -20 -53 -20 -22 0 -22 1 2
19 23 18 51 18 51 1z m26 -41 c8 -14 -65 -89 -88 -89 -22 0 -23 19 -4 65 13
31 20 35 50 35 19 0 38 -5 42 -11z m34 -54 c0 -19 -36 -39 -45 -24 -4 6 1 17
11 24 24 18 34 19 34 0z"/>
<path d="M2482 808 c-14 -14 -16 -42 -2 -33 10 6 70 -24 70 -36 0 -3 -23 -2
-51 3 -50 9 -53 8 -85 -23 -18 -18 -31 -36 -28 -41 3 -4 10 -6 15 -2 12 7 79
-62 79 -81 0 -33 -31 -28 -70 10 -22 21 -37 42 -34 47 11 18 -13 5 -51 -27
-36 -31 -38 -36 -29 -62 7 -22 16 -29 44 -31 36 -4 60 -17 60 -34 0 -6 -13 -8
-32 -4 l-33 6 24 -21 24 -20 21 21 c19 19 20 22 6 48 -12 20 -25 28 -55 32
-28 4 -41 10 -43 23 -3 15 0 18 17 12 16 -5 20 -3 15 9 -9 24 10 19 37 -10 13
-14 36 -32 50 -39 22 -12 29 -12 48 1 31 22 26 49 -18 97 -35 38 -44 67 -20
67 16 0 89 -72 89 -88 0 -13 3 -12 20 3 25 22 26 35 3 35 -10 0 -31 12 -48 26
-29 25 -29 25 -5 20 56 -14 110 -18 110 -10 -1 5 -23 26 -50 47 -28 21 -50 45
-50 53 0 17 -12 18 -28 2z"/>
<path d="M2161 482 c-14 -26 3 -51 18 -26 11 18 11 18 26 0 8 -11 15 -39 15
-63 0 -48 5 -51 38 -24 23 20 30 55 12 66 -5 3 -10 -3 -10 -14 0 -12 -4 -21
-10 -21 -5 0 -10 12 -10 28 0 57 -56 96 -79 54z"/>
<path d="M2290 441 c0 -5 7 -14 15 -21 8 -7 15 -21 15 -31 0 -11 5 -19 10 -19
13 0 13 23 -2 55 -11 23 -38 35 -38 16z"/>
<path d="M915 421 c7 -23 -34 -111 -52 -111 -13 0 -19 -20 -5 -20 4 0 17 -3
29 -6 18 -5 21 -2 17 13 -3 10 0 32 7 48 l12 30 7 -25 c5 -14 8 -42 9 -62 1
-21 5 -38 9 -38 5 0 19 23 33 52 13 28 30 57 37 65 17 16 7 33 -20 33 -15 0
-18 -3 -11 -12 7 -9 6 -24 -4 -47 -8 -18 -16 -32 -18 -29 -2 2 -5 27 -6 56 -2
39 -7 56 -20 63 -26 13 -31 11 -24 -10z"/>
<path d="M2047 429 c-15 -9 -17 -19 -12 -62 l6 -52 -34 37 c-25 28 -39 36 -55
31 -24 -6 -30 -23 -8 -23 16 0 51 -82 49 -112 -1 -10 1 -17 5 -15 62 28 61 27
56 81 -5 49 -5 50 10 26 8 -14 15 -35 16 -47 0 -21 2 -22 26 -11 22 10 23 14
11 23 -20 14 -50 84 -48 113 1 25 2 25 -22 11z m-7 -161 c0 -16 -19 -7 -34 14
-27 37 -18 57 9 23 14 -16 25 -33 25 -37z"/>
<path d="M2163 393 c-7 -2 -13 -12 -13 -20 0 -10 6 -13 16 -9 9 3 18 6 20 6 2
0 4 7 4 15 0 15 -6 17 -27 8z"/>
<path d="M1046 336 c-10 -19 -31 -48 -47 -64 -30 -30 -29 -42 4 -42 12 0 17 5
14 14 -8 20 13 38 30 25 9 -8 10 -16 2 -30 -8 -16 -5 -21 18 -30 15 -6 40 -13
54 -16 24 -4 25 -3 21 26 -6 42 14 39 22 -3 4 -19 14 -37 23 -40 21 -8 30 1
15 16 -17 17 -15 56 3 74 26 26 18 54 -20 70 -47 19 -58 18 -50 -6 8 -26 -23
-122 -38 -117 -8 2 -12 31 -13 77 0 41 -4 75 -10 77 -5 2 -18 -12 -28 -31z
m144 -40 c0 -27 -17 -43 -30 -30 -10 11 6 54 20 54 5 0 10 -11 10 -24z"/>
<path d="M1810 337 c-35 -16 -35 -16 -18 -30 21 -16 41 -82 33 -107 -6 -19 -4
-20 22 -14 37 9 41 14 20 25 -9 6 -17 20 -17 31 0 21 1 21 28 -4 33 -30 62
-42 62 -25 0 7 -14 20 -30 29 -25 14 -29 21 -24 46 4 20 1 34 -11 45 -19 19
-30 20 -65 4z m51 -28 c8 -16 8 -24 0 -32 -14 -14 -31 6 -31 36 0 23 17 22 31
-4z"/>
<path d="M2132 329 c1 -13 8 -23 13 -21 15 3 12 35 -3 40 -9 3 -13 -3 -10 -19z"/>
<path d="M1252 308 c-18 -18 -15 -56 8 -85 11 -14 17 -29 14 -34 -10 -17 -32
-9 -39 14 -6 19 -8 20 -12 4 -7 -28 4 -47 30 -47 49 0 62 48 26 94 -17 21 -19
30 -10 39 10 9 16 7 27 -8 15 -19 15 -19 12 5 -3 28 -35 39 -56 18z"/>
<path d="M1700 311 c0 -6 5 -13 10 -16 16 -10 12 -42 -6 -49 -25 -10 -37 4
-30 36 5 25 3 29 -10 24 -9 -3 -20 -6 -25 -6 -6 0 -5 -9 2 -21 6 -12 12 -46
12 -75 2 -54 8 -61 42 -48 10 4 13 9 6 13 -6 4 -12 18 -13 31 -2 20 2 26 21
28 21 3 23 1 19 -31 -4 -33 -2 -35 24 -35 16 1 28 7 28 15 0 7 -4 13 -9 13
-16 0 -33 100 -20 116 9 11 6 14 -20 14 -17 0 -31 -4 -31 -9z"/>
<path d="M1333 248 c-2 -34 -7 -66 -13 -72 -18 -18 -11 -26 22 -26 24 0 29 3
21 11 -13 13 -6 107 10 127 6 8 6 12 -1 12 -6 0 -16 2 -24 5 -10 4 -14 -10
-15 -57z"/>
<path d="M1390 291 c0 -6 4 -12 9 -15 10 -7 1 -110 -10 -114 -20 -8 -7 -22 21
-22 29 0 42 14 19 22 -6 2 -9 21 -7 43 l3 40 25 -52 c33 -71 50 -69 50 5 0 31
3 67 6 80 5 17 2 22 -14 22 -23 0 -39 -16 -22 -22 14 -4 26 -78 13 -78 -6 0
-20 23 -32 50 -15 36 -27 50 -41 50 -11 0 -20 -4 -20 -9z"/>
<path d="M1536 278 c-29 -41 -15 -121 24 -133 41 -13 67 2 72 40 4 33 2 35
-24 35 -15 0 -28 -4 -28 -10 0 -5 5 -10 10 -10 6 0 10 -9 10 -20 0 -11 -6 -20
-14 -20 -24 0 -37 27 -34 72 3 48 29 64 53 31 13 -17 14 -16 15 10 0 24 -3 27
-34 27 -25 0 -39 -7 -50 -22z"/>
<path d="M1946 252 c-2 -4 -1 -14 4 -22 7 -11 12 -12 21 -3 6 6 8 16 5 22 -8
13 -23 14 -30 3z"/>
</g>
</svg>
