<?xml version="1.0" standalone="no"?>
<!DOCTYPE svg PUBLIC "-//W3C//DTD SVG 20010904//EN"
 "http://www.w3.org/TR/2001/REC-SVG-20010904/DTD/svg10.dtd">
<svg version="1.0" xmlns="http://www.w3.org/2000/svg"
 width="300.000000pt" height="200.000000pt" viewBox="0 0 300.000000 200.000000"
 preserveAspectRatio="xMidYMid meet">
<metadata>
Created by potrace 1.10, written by Peter Selinger 2001-2011
</metadata>
<g transform="translate(0.000000,200.000000) scale(0.100000,-0.100000)"
fill="#000000" stroke="none">
<path d="M1545 1710 c-3 -5 -12 -7 -20 -4 -16 7 -14 -21 3 -38 9 -9 12 -8 12
4 0 23 14 30 44 22 21 -5 24 -9 16 -24 -16 -30 -11 -37 8 -12 12 15 32 25 57
27 31 4 36 2 23 -6 -10 -5 -18 -20 -18 -31 l0 -22 20 22 c32 34 25 49 -22 54
-24 3 -46 1 -49 -4 -3 -4 -14 -1 -25 7 -22 17 -40 19 -49 5z"/>
<path d="M1480 1695 c0 -8 -5 -15 -11 -15 -5 0 -7 5 -4 10 3 6 1 10 -4 10 -6
0 -11 -4 -11 -10 0 -5 -7 -7 -16 -3 -12 4 -15 2 -12 -8 3 -9 20 -14 49 -14 43
0 44 1 34 22 -11 26 -25 30 -25 8z"/>
<path d="M1720 1675 c-12 -32 -12 -35 -2 -35 12 0 31 49 21 56 -5 3 -14 -7
-19 -21z"/>
<path d="M1380 1681 c0 -5 7 -14 16 -22 11 -9 14 -22 10 -42 -4 -20 -2 -27 7
-24 17 5 16 58 -2 79 -17 19 -31 24 -31 9z"/>
<path d="M1556 1676 c3 -8 0 -17 -5 -21 -6 -3 -9 -11 -5 -16 3 -6 12 -2 21 10
14 21 11 41 -7 41 -5 0 -7 -6 -4 -14z"/>
<path d="M1329 1664 c-6 -8 -20 -14 -31 -14 -20 0 -59 -22 -92 -52 -11 -10
-26 -18 -33 -18 -12 0 -123 -101 -123 -112 0 -3 14 -5 30 -6 17 0 30 3 30 8 0
5 -8 7 -17 4 -13 -4 -14 -3 -5 3 6 5 19 18 27 29 13 16 14 16 9 2 -5 -14 -1
-18 15 -18 12 0 21 -6 21 -15 0 -8 5 -15 10 -15 16 0 12 10 -15 42 -14 16 -23
33 -20 38 7 12 45 19 45 9 0 -5 7 -9 16 -9 9 0 14 6 12 12 -3 7 0 17 7 23 6 5
26 23 44 40 25 23 31 26 25 10 -8 -19 -7 -20 19 -2 23 15 27 15 27 2 0 -8 -9
-15 -20 -15 -11 0 -20 -6 -20 -14 0 -18 37 -9 44 11 3 8 10 11 16 8 7 -4 6
-13 -1 -26 -19 -36 -5 -29 24 11 l27 39 -26 -2 c-16 -1 -29 4 -32 13 -4 12 -2
13 9 3 17 -17 29 -16 29 1 0 19 -37 27 -51 10z"/>
<path d="M1775 1660 c8 -9 11 -27 8 -45 l-5 -30 17 23 c14 19 24 23 46 18 19
-4 28 -2 26 6 -3 16 -64 47 -87 45 -17 -1 -17 -3 -5 -17z m65 -16 c0 -2 -9 -4
-20 -4 -11 0 -20 4 -20 9 0 5 9 7 20 4 11 -3 20 -7 20 -9z"/>
<path d="M1634 1650 c1 -20 21 -40 41 -40 6 0 3 5 -5 10 -8 5 -15 17 -15 26 0
10 -5 19 -11 21 -6 2 -11 -6 -10 -17z"/>
<path d="M1744 1650 c0 -11 6 -20 13 -20 11 0 11 5 3 20 -6 11 -12 20 -13 20
-2 0 -3 -9 -3 -20z"/>
<path d="M1465 1650 c-4 -6 -11 -8 -16 -5 -5 4 -9 1 -9 -4 0 -14 23 -14 36 -1
7 7 18 4 34 -10 13 -11 28 -20 34 -20 15 1 -46 50 -61 50 -6 0 -15 -5 -18 -10z"/>
<path d="M1878 1618 c-22 -22 -22 -28 -3 -28 8 0 15 8 16 18 0 14 2 14 9 -3
13 -30 12 -38 -5 -31 -9 3 -15 0 -15 -8 0 -9 7 -12 20 -9 13 3 20 14 20 28 0
13 5 25 11 27 6 2 1 8 -12 14 -19 8 -28 7 -41 -8z"/>
<path d="M1480 1620 c0 -5 5 -10 10 -10 6 0 10 5 10 10 0 6 -4 10 -10 10 -5 0
-10 -4 -10 -10z"/>
<path d="M1571 1614 c0 -11 3 -14 6 -6 3 7 2 16 -1 19 -3 4 -6 -2 -5 -13z"/>
<path d="M1595 1620 c3 -5 8 -10 11 -10 2 0 4 5 4 10 0 6 -5 10 -11 10 -5 0
-7 -4 -4 -10z"/>
<path d="M1720 1617 c0 -9 -5 -17 -11 -17 -5 0 -7 -5 -4 -10 4 -6 12 -4 22 6
12 11 13 18 4 27 -8 8 -11 7 -11 -6z"/>
<path d="M1813 1612 c-8 -5 -3 -11 13 -19 26 -12 27 -12 18 11 -7 18 -13 19
-31 8z"/>
<path d="M1262 1602 c-7 -5 -10 -15 -7 -23 6 -17 -11 -46 -21 -36 -4 3 -1 13
6 22 9 11 9 15 1 15 -16 0 -31 -43 -18 -51 5 -4 6 -12 3 -18 -4 -6 -3 -11 1
-11 5 0 17 14 27 30 9 17 22 28 27 25 5 -4 9 -2 9 4 0 5 -5 13 -11 16 -6 4 -8
13 -5 21 6 16 5 17 -12 6z"/>
<path d="M1440 1600 c0 -5 5 -10 10 -10 6 0 10 5 10 10 0 6 -4 10 -10 10 -5 0
-10 -4 -10 -10z"/>
<path d="M1480 1592 c0 -11 41 -45 47 -39 2 3 -5 15 -16 26 -22 22 -31 26 -31
13z"/>
<path d="M1585 1591 c-3 -5 -1 -12 4 -15 5 -3 11 1 15 9 6 16 -9 21 -19 6z"/>
<path d="M1640 1591 c0 -5 9 -7 20 -4 11 3 20 7 20 9 0 2 -9 4 -20 4 -11 0
-20 -4 -20 -9z"/>
<path d="M1937 1581 c-2 -11 0 -24 6 -30 13 -13 40 -15 32 -2 -3 5 -1 12 5 16
5 3 10 -3 10 -14 0 -11 5 -23 10 -26 6 -3 10 -11 10 -16 0 -6 -10 -3 -22 5
-32 23 -48 19 -18 -4 37 -29 57 -24 51 13 0 4 4 7 9 7 9 0 7 -27 -6 -67 -2 -7
1 -13 6 -13 6 0 10 9 10 20 0 11 5 20 10 20 6 0 10 9 10 20 0 21 -27 40 -48
33 -7 -3 -10 1 -6 10 7 20 -25 30 -44 15 -13 -11 -15 -10 -10 10 4 12 3 22 -2
22 -4 0 -10 -9 -13 -19z"/>
<path d="M1675 1570 c-3 -5 1 -10 10 -10 9 0 13 5 10 10 -3 6 -8 10 -10 10 -2
0 -7 -4 -10 -10z"/>
<path d="M1770 1572 c0 -7 5 -12 11 -12 5 0 8 -4 5 -9 -3 -5 1 -11 9 -15 21
-8 19 8 -5 29 -11 10 -20 13 -20 7z"/>
<path d="M1835 1560 c-3 -5 -2 -10 4 -10 5 0 13 5 16 10 3 6 2 10 -4 10 -5 0
-13 -4 -16 -10z"/>
<path d="M1305 1540 c-19 -8 -19 -9 3 -9 12 -1 24 -1 27 -1 9 0 7 14 -2 17 -4
1 -17 -2 -28 -7z"/>
<path d="M1417 1543 c-4 -6 0 -16 8 -23 21 -17 28 -8 11 15 -8 11 -15 14 -19
8z"/>
<path d="M1157 1520 c10 -11 19 -20 20 -20 2 0 3 9 3 20 0 13 -7 20 -20 20
-19 0 -19 -1 -3 -20z"/>
<path d="M1890 1530 c0 -5 10 -10 23 -10 18 0 19 2 7 10 -19 13 -30 13 -30 0z"/>
<path d="M1710 1520 c0 -5 5 -10 11 -10 5 0 7 5 4 10 -3 6 -8 10 -11 10 -2 0
-4 -4 -4 -10z"/>
<path d="M1850 1509 c0 -5 5 -7 10 -4 6 3 10 8 10 11 0 2 -4 4 -10 4 -5 0 -10
-5 -10 -11z"/>
<path d="M1256 1501 c-4 -5 -2 -12 3 -15 5 -4 12 -2 15 3 4 5 2 12 -3 15 -5 4
-12 2 -15 -3z"/>
<path d="M1880 1500 c0 -5 5 -10 11 -10 5 0 7 5 4 10 -3 6 -8 10 -11 10 -2 0
-4 -4 -4 -10z"/>
<path d="M2065 1493 c-13 -29 -14 -43 -4 -43 5 0 9 10 9 23 1 20 2 20 11 4 6
-10 8 -25 5 -33 -7 -17 10 -19 18 -1 3 6 4 0 2 -15 -2 -21 1 -28 14 -28 9 0
22 -11 28 -25 6 -14 16 -25 22 -25 27 0 0 -101 -32 -121 -10 -7 -9 -9 3 -9 20
0 33 15 46 55 l10 30 13 -27 c7 -16 17 -28 22 -28 6 0 7 6 4 13 -3 6 -9 20
-12 30 -4 9 -10 17 -15 17 -5 0 -9 9 -9 19 0 11 -8 26 -19 33 -10 7 -21 23
-25 36 -5 15 -13 21 -22 18 -8 -3 -14 -1 -14 4 0 6 6 10 13 10 6 1 2 9 -10 19
-13 11 -23 24 -23 29 0 5 -6 15 -14 21 -11 9 -15 8 -21 -6z"/>
<path d="M1755 1490 c4 -6 11 -8 16 -5 14 9 11 15 -7 15 -8 0 -12 -5 -9 -10z"/>
<path d="M1203 1480 c4 -18 37 -27 37 -10 0 6 -5 8 -11 4 -6 -3 -16 0 -21 7
-8 12 -9 11 -5 -1z"/>
<path d="M1335 1480 c-3 -5 -1 -10 4 -10 6 0 11 5 11 10 0 6 -2 10 -4 10 -3 0
-8 -4 -11 -10z"/>
<path d="M1853 1474 c-3 -8 -1 -20 6 -27 8 -8 11 -4 11 16 0 30 -7 35 -17 11z"/>
<path d="M1126 1472 c-3 -6 -1 -14 5 -17 15 -10 25 3 12 16 -7 7 -13 7 -17 1z"/>
<path d="M1990 1469 c0 -5 5 -7 10 -4 6 3 10 8 10 11 0 2 -4 4 -10 4 -5 0 -10
-5 -10 -11z"/>
<path d="M1930 1455 c0 -8 4 -15 9 -15 5 0 11 7 15 15 3 9 0 15 -9 15 -8 0
-15 -7 -15 -15z"/>
<path d="M1030 1445 c0 -8 -4 -15 -10 -15 -5 0 -10 -6 -10 -14 0 -8 -6 -16
-12 -19 -11 -4 -58 -80 -58 -93 0 -2 7 -4 16 -4 13 0 15 -7 11 -30 -10 -45 11
-36 23 11 8 30 8 45 1 52 -17 17 -13 31 5 16 13 -11 14 -9 9 14 -5 20 -3 27 7
27 8 0 21 12 28 28 11 23 14 24 18 8 2 -10 -1 -22 -8 -26 -9 -6 -9 -9 0 -15
15 -9 28 9 26 37 -1 25 -46 46 -46 23z m-50 -125 c0 -5 -2 -10 -4 -10 -3 0 -8
5 -11 10 -3 6 -1 10 4 10 6 0 11 -4 11 -10z"/>
<path d="M1090 1440 c0 -5 5 -12 11 -16 8 -4 8 -9 0 -17 -17 -17 -13 -31 4
-17 8 7 15 20 15 30 0 10 -7 20 -15 24 -8 3 -15 1 -15 -4z"/>
<path d="M1970 1440 c0 -5 5 -10 11 -10 5 0 7 5 4 10 -3 6 -8 10 -11 10 -2 0
-4 -4 -4 -10z"/>
<path d="M1140 1433 c0 -15 29 -49 30 -35 0 7 -7 20 -15 28 -8 9 -15 11 -15 7z"/>
<path d="M2050 1430 c0 -5 5 -10 10 -10 6 0 10 5 10 10 0 6 -4 10 -10 10 -5 0
-10 -4 -10 -10z"/>
<path d="M1200 1420 c0 -5 5 -10 10 -10 6 0 10 5 10 10 0 6 -4 10 -10 10 -5 0
-10 -4 -10 -10z"/>
<path d="M1935 1420 c3 -5 11 -10 16 -10 6 0 7 5 4 10 -3 6 -11 10 -16 10 -6
0 -7 -4 -4 -10z"/>
<path d="M2010 1420 c0 -5 4 -10 9 -10 6 0 13 5 16 10 3 6 -1 10 -9 10 -9 0
-16 -4 -16 -10z"/>
<path d="M2050 1400 c0 -13 28 -25 38 -16 3 4 0 11 -8 16 -20 13 -30 12 -30 0z"/>
<path d="M2120 1373 c0 -17 -5 -20 -22 -15 -13 3 -19 1 -15 -6 4 -5 1 -12 -5
-15 -7 -2 0 -4 15 -3 20 1 29 7 34 24 3 13 3 26 -1 29 -3 4 -6 -3 -6 -14z"/>
<path d="M1010 1370 c0 -5 5 -10 12 -10 6 0 22 -9 34 -21 13 -12 24 -16 28
-11 3 6 -7 20 -23 31 -32 23 -51 27 -51 11z"/>
<path d="M1105 1350 c3 -5 8 -10 11 -10 2 0 4 5 4 10 0 6 -5 10 -11 10 -5 0
-7 -4 -4 -10z"/>
<path d="M2000 1342 c0 -5 7 -13 16 -16 22 -8 24 -8 24 6 0 6 -3 8 -7 5 -3 -4
-12 -2 -20 4 -8 7 -13 8 -13 1z"/>
<path d="M1015 1327 c-4 -10 -5 -21 -1 -24 10 -10 18 4 13 24 -4 17 -4 17 -12
0z"/>
<path d="M2147 1334 c-8 -8 3 -34 14 -34 11 0 12 27 0 34 -4 3 -11 3 -14 0z"/>
<path d="M1402 1158 l3 -163 66 3 c60 3 67 2 72 -18 5 -20 11 -21 109 -18
l103 3 3 83 c3 77 1 84 -17 89 -18 5 -21 15 -23 92 l-3 86 -158 3 -157 3 2
-163z m246 144 c-10 -2 -18 -8 -18 -13 0 -12 -107 -12 -115 1 -9 14 -51 13
-75 -2 -21 -13 -36 -6 -25 12 4 7 48 10 128 8 67 -1 114 -4 105 -6z m42 -13
c0 -6 -4 -7 -10 -4 -5 3 -10 11 -10 16 0 6 5 7 10 4 6 -3 10 -11 10 -16z m-52
-22 l62 3 0 -40 c0 -30 -3 -38 -15 -34 -8 3 -13 11 -12 17 1 7 -13 13 -30 15
-25 3 -33 -1 -33 -13 0 -12 6 -15 21 -10 15 5 19 4 15 -4 -5 -7 2 -11 16 -12
13 0 17 -3 11 -6 -17 -6 -84 17 -78 27 10 16 -10 17 -40 4 -29 -13 -29 -13 -5
-14 14 0 32 -5 40 -10 11 -7 5 -10 -23 -10 -28 0 -44 7 -62 26 -30 33 -47 23
-42 -24 4 -32 8 -37 36 -43 49 -10 49 -18 -2 -16 -25 1 -43 6 -40 10 3 5 -2 7
-11 5 -27 -5 -18 -23 12 -24 87 -4 88 -4 69 -15 -10 -6 -34 -8 -53 -5 -21 4
-34 3 -34 -4 0 -5 22 -10 50 -10 28 0 50 -4 50 -9 0 -16 -18 -22 -23 -9 -3 9
-10 7 -21 -7 -22 -28 -20 -33 17 -38 17 -2 3 -4 -33 -3 l-65 1 -3 123 c-3 119
-2 123 20 132 13 5 49 6 83 2 33 -4 88 -6 123 -5z m-132 -76 c-4 -5 0 -12 6
-14 8 -4 7 -6 -3 -6 -9 -1 -19 6 -23 14 -3 9 0 15 10 15 8 0 13 -4 10 -9z
m114 -21 c-13 -9 -13 -10 0 -10 8 0 30 4 48 9 28 9 32 7 32 -10 0 -11 -7 -19
-16 -19 -9 0 -12 5 -8 12 5 8 2 9 -12 3 -38 -16 -76 -18 -85 -4 -6 10 -9 11
-9 2 0 -7 -5 -13 -11 -13 -5 0 -7 4 -4 10 4 6 -6 7 -27 3 -18 -3 -30 -3 -26 2
4 4 31 11 60 15 75 11 75 11 58 0z m120 -120 l0 -70 -90 0 -90 0 0 70 0 70 90
0 90 0 0 -70z m-203 -16 c-3 -3 -12 -4 -19 -1 -8 3 -5 6 6 6 11 1 17 -2 13 -5z"/>
<path d="M1427 1254 c-10 -11 3 -24 24 -24 10 0 19 7 19 15 0 15 -31 21 -43 9z"/>
<path d="M1485 1250 c-3 -6 1 -13 9 -16 19 -7 91 4 82 13 -10 11 -85 13 -91 3z"/>
<path d="M1440 1060 c0 -5 11 -10 25 -10 14 0 25 5 25 10 0 6 -11 10 -25 10
-14 0 -25 -4 -25 -10z"/>
<path d="M1642 1055 c-26 -53 -26 -55 -9 -55 7 0 19 17 26 38 8 20 16 43 18
50 3 6 1 12 -4 12 -5 0 -19 -20 -31 -45z"/>
<path d="M1585 1060 c-7 -23 1 -40 18 -40 7 0 12 14 13 30 1 34 -21 41 -31 10z"/>
<path d="M1690 1065 c10 -12 10 -18 0 -30 -19 -23 -3 -31 20 -10 15 13 17 22
9 36 -5 11 -17 19 -26 19 -13 0 -13 -3 -3 -15z"/>
<path d="M2115 1310 c3 -5 8 -10 11 -10 2 0 4 5 4 10 0 6 -5 10 -11 10 -5 0
-7 -4 -4 -10z"/>
<path d="M1040 1299 c0 -5 5 -7 10 -4 6 3 10 8 10 11 0 2 -4 4 -10 4 -5 0 -10
-5 -10 -11z"/>
<path d="M1070 1290 c0 -5 5 -10 10 -10 6 0 10 5 10 10 0 6 -4 10 -10 10 -5 0
-10 -4 -10 -10z"/>
<path d="M2100 1285 c7 -9 15 -13 17 -11 7 7 -7 26 -19 26 -6 0 -6 -6 2 -15z"/>
<path d="M926 1274 c-5 -12 -2 -15 10 -10 8 3 18 6 20 6 2 0 4 5 4 10 0 16
-27 11 -34 -6z"/>
<path d="M1005 1280 c-3 -5 -1 -10 4 -10 6 0 11 5 11 10 0 6 -2 10 -4 10 -3 0
-8 -4 -11 -10z"/>
<path d="M2065 1280 c3 -5 8 -10 11 -10 2 0 4 5 4 10 0 6 -5 10 -11 10 -5 0
-7 -4 -4 -10z"/>
<path d="M2130 1259 c0 -5 5 -7 10 -4 6 3 10 8 10 11 0 2 -4 4 -10 4 -5 0 -10
-5 -10 -11z"/>
<path d="M1030 1250 c0 -5 7 -10 15 -10 8 0 15 5 15 10 0 6 -7 10 -15 10 -8 0
-15 -4 -15 -10z"/>
<path d="M2195 1250 c3 -5 2 -10 -3 -10 -5 0 -7 -11 -4 -25 2 -14 9 -25 14
-25 6 0 7 11 4 25 -10 38 -1 30 23 -20 22 -47 30 -87 8 -46 -6 14 -19 26 -27
29 -9 3 -8 -2 5 -13 16 -13 17 -16 3 -11 -10 3 -20 1 -23 -4 -4 -6 3 -10 14
-10 26 0 27 -8 4 -27 -17 -13 -16 -14 8 -9 21 5 25 2 24 -14 -1 -11 -9 -28
-18 -38 -11 -11 -17 -36 -18 -63 -1 -66 2 -95 7 -82 3 7 11 10 19 7 7 -3 16 0
20 5 3 6 11 9 16 5 6 -3 9 12 7 40 -2 31 -7 45 -15 42 -7 -3 -15 0 -19 6 -4 7
-9 6 -15 -3 -7 -11 -9 -11 -9 2 0 17 45 61 54 52 3 -4 6 -1 6 5 0 7 -8 12 -17
12 -16 1 -16 2 2 16 14 11 16 18 8 21 -8 3 -11 14 -7 29 4 15 2 24 -6 24 -7 0
-10 7 -6 15 3 9 -7 27 -24 45 -29 29 -47 40 -35 20z m58 -277 c3 -17 0 -34 -9
-43 -12 -12 -14 -12 -14 3 0 9 5 17 11 17 5 0 8 4 4 10 -3 5 -12 7 -20 3 -10
-3 -15 1 -15 12 0 9 5 13 10 10 6 -3 10 -1 10 4 0 23 18 10 23 -16z"/>
<path d="M917 1243 c-4 -3 -7 -13 -7 -21 0 -12 3 -12 15 -2 9 7 18 10 22 7 3
-4 -6 -12 -21 -18 -15 -7 -25 -18 -22 -24 2 -6 -2 -19 -10 -30 -16 -22 -18
-35 -5 -35 5 0 16 15 24 33 9 17 25 40 37 50 17 15 19 21 10 33 -13 15 -32 18
-43 7z"/>
<path d="M990 1235 c0 -8 5 -15 10 -15 6 0 10 7 10 15 0 8 -4 15 -10 15 -5 0
-10 -7 -10 -15z"/>
<path d="M2095 1240 c3 -5 10 -10 16 -10 5 0 9 5 9 10 0 6 -7 10 -16 10 -8 0
-12 -4 -9 -10z"/>
<path d="M1055 1210 c-3 -5 -1 -10 4 -10 6 0 11 5 11 10 0 6 -2 10 -4 10 -3 0
-8 -4 -11 -10z"/>
<path d="M970 1197 c0 -9 -6 -17 -14 -17 -18 0 -89 -111 -78 -122 15 -15 82
-22 82 -9 0 6 -11 11 -24 11 -25 0 -43 16 -31 28 3 3 10 0 15 -8 6 -10 8 -1 4
25 -5 36 -4 38 9 23 8 -10 19 -18 26 -18 6 0 11 -5 11 -11 0 -5 5 -7 11 -3 8
4 7 9 -2 15 -8 5 -9 9 -4 9 6 1 -1 6 -14 11 -19 8 -21 12 -11 24 7 8 16 13 20
10 13 -8 22 27 10 39 -7 7 -10 5 -10 -7z"/>
<path d="M2120 1190 c0 -5 4 -10 9 -10 6 0 13 5 16 10 3 6 -1 10 -9 10 -9 0
-16 -4 -16 -10z"/>
<path d="M2162 1183 c2 -9 10 -19 18 -21 12 -4 13 -3 3 10 -7 8 -10 18 -6 21
3 4 1 7 -6 7 -7 0 -11 -8 -9 -17z"/>
<path d="M1040 1160 c0 -5 5 -10 10 -10 6 0 10 5 10 10 0 6 -4 10 -10 10 -5 0
-10 -4 -10 -10z"/>
<path d="M2095 1160 c-3 -5 -1 -10 4 -10 6 0 11 5 11 10 0 6 -2 10 -4 10 -3 0
-8 -4 -11 -10z"/>
<path d="M2140 1135 c0 -8 5 -15 10 -15 6 0 10 7 10 15 0 8 -4 15 -10 15 -5 0
-10 -7 -10 -15z"/>
<path d="M2175 1110 c3 -5 8 -10 11 -10 2 0 4 5 4 10 0 6 -5 10 -11 10 -5 0
-7 -4 -4 -10z"/>
<path d="M2125 1100 c-3 -5 1 -10 10 -10 9 0 13 5 10 10 -3 6 -8 10 -10 10 -2
0 -7 -4 -10 -10z"/>
<path d="M2090 1090 c0 -5 5 -10 11 -10 5 0 7 5 4 10 -3 6 -8 10 -11 10 -2 0
-4 -4 -4 -10z"/>
<path d="M945 1080 c3 -5 8 -10 11 -10 2 0 4 5 4 10 0 6 -5 10 -11 10 -5 0 -7
-4 -4 -10z"/>
<path d="M2200 1080 c-8 -5 -11 -12 -8 -16 10 -9 38 3 38 16 0 12 -10 13 -30
0z"/>
<path d="M984 1043 c3 -7 1 -13 -5 -13 -6 0 -8 -4 -4 -10 3 -5 14 -1 25 10 25
25 25 29 0 27 -12 -1 -18 -7 -16 -14z"/>
<path d="M2153 1042 c0 -12 5 -22 9 -22 11 0 10 12 -2 30 -7 12 -9 10 -7 -8z"/>
<path d="M2255 1039 c-4 -6 -5 -13 -2 -16 7 -7 27 6 27 18 0 12 -17 12 -25 -2z"/>
<path d="M870 1030 c0 -5 7 -10 15 -10 8 0 15 5 15 10 0 6 -7 10 -15 10 -8 0
-15 -4 -15 -10z"/>
<path d="M892 1014 c-16 -8 -19 -13 -10 -16 11 -4 11 -8 0 -20 -9 -12 -10 -18
-2 -23 6 -4 8 -16 4 -27 -5 -16 -3 -20 9 -15 10 4 23 -9 40 -41 23 -42 26 -44
22 -17 -2 17 -4 36 -4 43 -1 7 -5 11 -10 7 -5 -3 -13 0 -17 6 -5 9 1 10 20 5
15 -4 26 -2 26 4 0 5 -11 10 -24 10 -25 0 -40 12 -29 24 3 3 12 1 20 -5 9 -9
13 -8 13 0 0 6 -4 11 -10 11 -5 0 -10 8 -10 18 -1 15 -2 15 -15 -2 -15 -20
-15 -20 -15 0 0 11 5 25 12 32 17 17 7 21 -20 6z"/>
<path d="M2120 1020 c0 -5 5 -10 10 -10 6 0 10 5 10 10 0 6 -4 10 -10 10 -5 0
-10 -4 -10 -10z"/>
<path d="M2170 1000 c0 -5 5 -10 10 -10 6 0 10 5 10 10 0 6 -4 10 -10 10 -5 0
-10 -4 -10 -10z"/>
<path d="M940 990 c0 -5 5 -10 10 -10 6 0 10 5 10 10 0 6 -4 10 -10 10 -5 0
-10 -4 -10 -10z"/>
<path d="M996 984 c-9 -23 -2 -28 13 -10 7 8 8 17 3 20 -6 3 -13 -1 -16 -10z"/>
<path d="M1030 970 c0 -5 5 -10 11 -10 5 0 7 5 4 10 -3 6 -8 10 -11 10 -2 0
-4 -4 -4 -10z"/>
<path d="M960 950 c0 -5 5 -10 10 -10 6 0 10 5 10 10 0 6 -4 10 -10 10 -5 0
-10 -4 -10 -10z"/>
<path d="M995 940 c-3 -5 -1 -10 4 -10 6 0 11 5 11 10 0 6 -2 10 -4 10 -3 0
-8 -4 -11 -10z"/>
<path d="M2155 930 c3 -5 8 -10 11 -10 2 0 4 5 4 10 0 6 -5 10 -11 10 -5 0 -7
-4 -4 -10z"/>
<path d="M2136 901 c19 -18 52 -22 58 -6 3 8 1 15 -4 15 -6 0 -10 -5 -10 -10
0 -7 -6 -7 -19 0 -24 12 -38 13 -25 1z"/>
<path d="M2250 901 c0 -5 -10 -11 -22 -13 -13 -2 -22 -9 -20 -16 1 -6 -5 -12
-13 -12 -8 0 -15 -7 -15 -16 0 -14 3 -14 16 -3 13 10 17 10 24 -2 5 -7 7 -24
4 -35 -3 -12 -1 -25 5 -28 6 -4 12 0 12 8 2 25 4 30 12 44 5 7 3 12 -6 12 -8
0 -18 7 -21 16 -10 26 -6 30 10 9 13 -17 16 -18 24 -5 13 20 13 50 0 50 -5 0
-10 -4 -10 -9z"/>
<path d="M895 858 c4 -24 11 -47 16 -52 5 -6 9 -16 9 -22 0 -25 21 -68 28 -58
4 6 14 14 22 17 11 4 10 7 -7 12 -18 6 -22 12 -17 32 4 15 0 30 -10 42 -9 10
-16 22 -15 27 3 14 -12 44 -23 44 -5 0 -6 -18 -3 -42z"/>
<path d="M977 893 c-10 -9 -9 -33 1 -33 4 0 8 9 8 20 0 23 0 22 -9 13z"/>
<path d="M1002 879 c2 -7 10 -15 17 -17 8 -3 12 1 9 9 -2 7 -10 15 -17 17 -8
3 -12 -1 -9 -9z"/>
<path d="M1146 872 c-2 -4 -8 -25 -12 -47 -6 -37 -6 -39 9 -26 14 11 20 11 32
1 18 -15 18 -8 4 43 -9 35 -22 46 -33 29z"/>
<path d="M1213 866 c17 -13 17 -16 3 -38 -9 -14 -13 -28 -9 -31 10 -11 53 -8
53 3 0 6 -7 10 -16 10 -15 0 -15 2 0 25 23 36 20 45 -16 45 -30 -1 -32 -2 -15
-14z"/>
<path d="M1280 837 c0 -44 0 -44 35 -43 34 1 35 2 35 44 0 48 -14 56 -25 15
l-8 -28 -6 24 c-12 44 -31 37 -31 -12z"/>
<path d="M1380 839 c-12 -43 -6 -64 11 -39 8 13 10 13 18 0 6 -8 13 -11 17 -7
9 9 -14 87 -26 87 -5 0 -14 -18 -20 -41z"/>
<path d="M1444 864 c3 -9 6 -29 6 -45 0 -22 5 -29 19 -29 11 0 23 5 26 10 3 6
-1 10 -9 10 -12 0 -16 10 -16 35 0 25 -4 35 -16 35 -11 0 -14 -5 -10 -16z"/>
<path d="M1554 856 c-7 -28 3 -66 17 -66 5 0 9 10 10 23 0 21 1 21 10 -3 8
-20 12 -22 18 -10 13 23 8 73 -8 78 -10 3 -12 0 -8 -12 4 -9 2 -16 -3 -16 -6
0 -10 7 -10 15 0 24 -19 17 -26 -9z"/>
<path d="M1634 866 c-9 -23 4 -66 21 -73 24 -9 45 16 45 53 0 24 -5 34 -15 34
-10 0 -15 -10 -15 -31 0 -16 -4 -28 -9 -25 -5 3 -7 15 -4 25 6 23 -15 38 -23
17z"/>
<path d="M1713 864 c-4 -11 1 -22 12 -30 17 -13 17 -14 2 -14 -21 0 -22 -19
-1 -27 8 -3 23 1 32 10 14 15 14 18 -3 37 -11 12 -14 20 -8 18 6 -2 13 2 15 7
6 18 -42 17 -49 -1z"/>
<path d="M1780 835 c0 -47 12 -58 29 -27 10 16 10 16 11 0 0 -10 5 -18 10 -18
6 0 10 20 10 45 0 26 -5 45 -11 45 -7 0 -9 -11 -6 -27 l6 -28 -12 28 c-17 43
-37 34 -37 -18z m23 -15 c-3 -12 -8 -19 -11 -16 -5 6 5 36 12 36 2 0 2 -9 -1
-20z"/>
<path d="M1865 840 c-7 -43 0 -64 14 -41 6 9 11 10 15 2 11 -17 26 -13 26 7 0
13 -2 14 -9 3 -5 -8 -8 0 -7 25 1 28 -3 39 -16 42 -12 2 -18 -7 -23 -38z"/>
<path d="M1932 838 c2 -24 8 -43 13 -43 6 0 11 19 13 43 3 33 0 42 -13 42 -13
0 -16 -9 -13 -42z m15 -20 c-2 -13 -4 -5 -4 17 -1 22 1 32 4 23 2 -10 2 -28 0
-40z"/>
<path d="M1972 839 c3 -37 6 -42 31 -45 26 -3 27 -1 27 42 0 24 -3 44 -8 44
-4 0 -6 -19 -4 -42 3 -39 2 -41 -12 -25 -14 18 -14 18 -19 0 -3 -10 -5 -1 -6
19 -1 21 4 38 12 41 7 3 4 6 -6 6 -15 1 -18 -6 -15 -40z"/>
<path d="M2120 849 c0 -5 5 -7 10 -4 6 3 10 8 10 11 0 2 -4 4 -10 4 -5 0 -10
-5 -10 -11z"/>
<path d="M1040 830 c0 -5 5 -10 11 -10 5 0 7 5 4 10 -3 6 -8 10 -11 10 -2 0
-4 -4 -4 -10z"/>
<path d="M2090 830 c0 -5 5 -10 11 -10 5 0 7 5 4 10 -3 6 -8 10 -11 10 -2 0
-4 -4 -4 -10z"/>
<path d="M961 798 c-6 -17 -8 -28 -4 -25 3 4 15 0 25 -10 21 -19 23 -6 3 21
-13 17 -12 21 3 32 15 12 15 13 0 14 -9 0 -21 -13 -27 -32z"/>
<path d="M2186 815 c-17 -13 -18 -15 -3 -15 9 0 17 -4 17 -9 0 -5 -8 -7 -18
-4 -10 2 -24 -2 -31 -11 -11 -12 -9 -14 11 -12 13 1 29 6 36 10 19 12 14 -6
-10 -32 -19 -21 -20 -24 -5 -19 11 4 16 3 12 -3 -8 -13 -42 -13 -50 -1 -3 5 4
12 15 16 11 4 18 11 15 16 -6 9 -54 -20 -55 -32 0 -4 14 -12 30 -19 30 -12 35
-30 12 -38 -7 -2 -12 4 -12 14 0 28 -13 7 -17 -28 -4 -39 -23 -63 -23 -29 0
19 -3 21 -14 12 -11 -9 -15 -9 -19 1 -3 8 -6 6 -6 -5 -1 -10 6 -20 14 -23 8
-4 15 -11 15 -16 0 -6 -6 -8 -14 -5 -16 6 -72 -40 -61 -51 4 -4 12 1 19 11 7
9 21 17 31 17 15 0 13 -3 -7 -19 -13 -11 -37 -23 -51 -26 -15 -4 -30 -11 -33
-16 -7 -11 -2 -11 33 1 26 10 27 9 8 -5 -28 -22 -61 -16 -57 10 3 19 3 19 -11
1 -11 -14 -11 -24 -3 -42 11 -25 26 -32 26 -13 0 6 7 9 15 5 9 -3 15 0 15 8 0
8 9 16 21 19 11 3 23 15 26 26 3 11 9 18 13 16 5 -3 21 12 37 32 15 21 35 44
43 50 13 11 13 14 0 23 -13 8 -13 10 1 10 9 0 28 18 43 40 21 32 25 49 23 95
-1 30 -4 55 -7 55 -3 0 -14 -7 -24 -15z"/>
<path d="M2106 801 c-4 -5 -2 -12 3 -15 5 -4 12 -2 15 3 4 5 2 12 -3 15 -5 4
-12 2 -15 -3z"/>
<path d="M2140 800 c0 -5 5 -10 10 -10 6 0 10 5 10 10 0 6 -4 10 -10 10 -5 0
-10 -4 -10 -10z"/>
<path d="M1000 786 c0 -2 7 -9 15 -16 12 -10 15 -10 15 4 0 9 -7 16 -15 16 -8
0 -15 -2 -15 -4z"/>
<path d="M1056 771 c-4 -7 -5 -15 -2 -18 9 -9 19 4 14 18 -4 11 -6 11 -12 0z"/>
<path d="M1310 736 c0 -8 5 -18 10 -21 6 -3 10 3 10 14 0 12 -4 21 -10 21 -5
0 -10 -6 -10 -14z"/>
<path d="M1362 736 c1 -10 8 -17 13 -17 15 1 12 24 -3 29 -9 3 -13 -2 -10 -12z"/>
<path d="M1410 730 c0 -13 5 -20 13 -17 6 2 12 10 12 17 0 7 -6 15 -12 18 -8
2 -13 -5 -13 -18z"/>
<path d="M1460 730 c0 -11 5 -20 10 -20 6 0 10 9 10 20 0 11 -4 20 -10 20 -5
0 -10 -9 -10 -20z"/>
<path d="M1542 733 c2 -10 10 -18 18 -18 8 0 16 8 18 18 2 12 -3 17 -18 17
-15 0 -20 -5 -18 -17z"/>
<path d="M1600 730 c0 -19 3 -21 12 -12 9 9 9 15 0 24 -9 9 -12 7 -12 -12z"/>
<path d="M1640 730 c0 -11 5 -20 10 -20 6 0 10 9 10 20 0 11 -4 20 -10 20 -5
0 -10 -9 -10 -20z"/>
<path d="M1685 740 c-7 -12 2 -30 16 -30 5 0 9 9 9 20 0 21 -15 27 -25 10z"/>
<path d="M1770 730 c0 -11 6 -20 13 -20 19 0 27 10 20 26 -8 21 -33 17 -33 -6z"/>
<path d="M1827 736 c-6 -15 1 -26 15 -26 4 0 8 9 8 20 0 23 -15 27 -23 6z"/>
<path d="M2080 740 c0 -5 7 -10 16 -10 8 0 12 5 9 10 -3 6 -10 10 -16 10 -5 0
-9 -4 -9 -10z"/>
<path d="M984 733 c-31 -6 -28 -50 5 -93 15 -19 36 -49 46 -67 20 -34 42 -35
24 -1 -9 16 -8 23 2 29 11 7 11 9 1 9 -29 0 -55 39 -56 85 -1 25 -1 44 -1 44
0 -1 -10 -4 -21 -6z"/>
<path d="M2045 730 c4 -6 11 -8 16 -5 14 9 11 15 -7 15 -8 0 -12 -5 -9 -10z"/>
<path d="M1019 704 c-12 -14 -11 -16 5 -13 11 2 21 10 24 17 5 17 -13 15 -29
-4z"/>
<path d="M1093 680 c6 -17 15 -26 20 -21 5 5 3 18 -5 30 -19 31 -28 26 -15 -9z"/>
<path d="M2080 690 c0 -5 5 -10 10 -10 6 0 10 5 10 10 0 6 -4 10 -10 10 -5 0
-10 -4 -10 -10z"/>
<path d="M1033 665 c-18 -20 -17 -22 18 -34 24 -8 30 -15 26 -31 -3 -13 0 -20
9 -20 8 0 14 -5 14 -11 0 -7 8 -18 18 -25 14 -10 15 -15 5 -25 -11 -11 -13
-11 -13 0 0 18 -27 43 -35 31 -8 -12 44 -70 63 -70 9 0 12 -3 9 -6 -11 -11 79
-65 97 -58 25 10 19 43 -10 54 -32 12 -34 12 -34 0 0 -5 9 -10 19 -10 21 0 37
-17 27 -27 -3 -3 -24 6 -46 21 -42 28 -52 40 -22 29 15 -6 16 -5 2 12 -14 16
-13 17 8 11 13 -5 22 -3 22 3 0 14 -33 14 -47 0 -8 -8 -13 -7 -18 1 -4 7 -2
16 5 20 8 5 7 9 -5 14 -16 6 -16 8 4 25 14 12 18 22 11 26 -5 3 -10 1 -10 -5
0 -6 -4 -8 -10 -5 -5 3 -10 -1 -10 -9 0 -30 -16 -16 -30 27 -13 34 -19 41 -38
39 -12 -2 -22 2 -22 7 0 6 5 11 10 11 6 0 10 5 10 10 0 14 -13 12 -27 -5z"/>
<path d="M1986 671 c-4 -7 -5 -15 -2 -18 9 -9 19 4 14 18 -4 11 -6 11 -12 0z"/>
<path d="M2050 660 c-8 -5 -11 -12 -7 -16 4 -4 15 0 24 9 18 18 8 23 -17 7z"/>
<path d="M2090 666 c0 -9 30 -14 35 -6 4 6 -3 10 -14 10 -12 0 -21 -2 -21 -4z"/>
<path d="M1115 610 c3 -5 8 -10 11 -10 2 0 4 5 4 10 0 6 -5 10 -11 10 -5 0 -7
-4 -4 -10z"/>
<path d="M2000 609 c0 -5 5 -7 10 -4 6 3 10 8 10 11 0 2 -4 4 -10 4 -5 0 -10
-5 -10 -11z"/>
<path d="M2040 610 c0 -5 5 -10 11 -10 5 0 7 5 4 10 -3 6 -8 10 -11 10 -2 0
-4 -4 -4 -10z"/>
<path d="M1950 580 c8 -5 20 -10 25 -10 6 0 3 5 -5 10 -8 5 -19 10 -25 10 -5
0 -3 -5 5 -10z"/>
<path d="M2010 575 c0 -8 5 -15 10 -15 6 0 10 7 10 15 0 8 -4 15 -10 15 -5 0
-10 -7 -10 -15z"/>
<path d="M1905 554 c9 -9 19 -13 23 -10 3 4 0 11 -8 16 -24 15 -33 11 -15 -6z"/>
<path d="M1220 545 c0 -8 5 -15 10 -15 6 0 10 7 10 15 0 8 -4 15 -10 15 -5 0
-10 -7 -10 -15z"/>
<path d="M1980 548 c0 -9 5 -20 11 -23 17 -11 20 0 4 21 -13 17 -14 17 -15 2z"/>
<path d="M1180 540 c0 -5 5 -10 11 -10 5 0 7 5 4 10 -3 6 -8 10 -11 10 -2 0
-4 -4 -4 -10z"/>
<path d="M1860 510 c0 -5 5 -10 10 -10 6 0 10 5 10 10 0 6 -4 10 -10 10 -5 0
-10 -4 -10 -10z"/>
<path d="M1900 500 c0 -11 4 -20 9 -20 17 0 19 15 5 28 -12 11 -14 9 -14 -8z"/>
<path d="M1406 491 c-4 -5 -2 -12 3 -15 5 -4 12 -2 15 3 4 5 2 12 -3 15 -5 4
-12 2 -15 -3z"/>
<path d="M1780 480 c0 -5 7 -10 15 -10 8 0 15 5 15 10 0 6 -7 10 -15 10 -8 0
-15 -4 -15 -10z"/>
<path d="M1860 470 c0 -5 -8 -7 -17 -4 -16 5 -16 4 1 -6 14 -10 21 -9 34 4 15
15 15 16 -1 16 -9 0 -17 -4 -17 -10z"/>
<path d="M1270 460 c0 -5 5 -10 10 -10 6 0 10 5 10 10 0 6 -4 10 -10 10 -5 0
-10 -4 -10 -10z"/>
<path d="M1496 454 c-9 -24 -7 -27 9 -10 17 17 19 26 6 26 -5 0 -12 -7 -15
-16z"/>
<path d="M1920 460 c20 -13 33 -13 25 0 -3 6 -14 10 -23 10 -15 0 -15 -2 -2
-10z"/>
<path d="M1330 450 c0 -5 5 -10 10 -10 6 0 10 5 10 10 0 6 -4 10 -10 10 -5 0
-10 -4 -10 -10z"/>
<path d="M1732 440 c-15 -24 -15 -30 -2 -30 6 0 10 7 10 15 0 8 5 15 10 15 6
0 10 5 10 10 0 16 -14 11 -28 -10z"/>
<path d="M1420 439 c0 -5 5 -7 10 -4 6 3 10 8 10 11 0 2 -4 4 -10 4 -5 0 -10
-5 -10 -11z"/>
<path d="M1585 439 c-4 -6 -5 -13 -2 -16 7 -7 27 6 27 18 0 12 -17 12 -25 -2z"/>
<path d="M1660 440 c-8 -5 -12 -11 -9 -14 2 -3 11 -1 19 4 8 5 12 11 9 14 -2
3 -11 1 -19 -4z"/>
<path d="M1790 435 c-7 -8 -19 -15 -26 -15 -8 0 -14 -4 -14 -10 0 -14 13 -13
28 2 10 10 15 10 22 -2 5 -8 12 -11 17 -7 4 5 1 12 -7 18 -13 8 -13 10 0 19 8
5 10 10 4 10 -6 0 -17 -7 -24 -15z"/>
<path d="M1885 431 c4 -12 2 -21 -4 -21 -6 0 -11 5 -11 11 0 5 -4 7 -10 4 -5
-3 -10 -1 -10 4 0 6 -4 11 -9 11 -13 0 -10 -43 4 -53 5 -5 -8 -6 -30 -3 -37 6
-39 5 -21 -9 24 -19 36 -19 61 -1 11 7 32 16 48 20 28 7 36 22 15 29 -7 2 -1
2 15 0 15 -3 27 0 27 6 0 6 -8 11 -17 11 -10 0 -29 3 -42 7 -20 5 -22 3 -16
-16z"/>
<path d="M1290 431 c0 -5 -9 -13 -20 -16 -11 -3 -20 -11 -20 -17 0 -5 7 -8 15
-4 8 3 15 1 15 -5 0 -11 48 -32 73 -31 9 0 17 -3 17 -7 0 -5 12 -11 28 -14 15
-3 38 -8 52 -11 49 -12 152 -17 146 -7 -4 5 -2 12 3 15 5 3 11 0 14 -7 5 -13
32 -16 52 -6 6 3 26 6 45 8 46 3 91 21 84 33 -4 6 -10 6 -17 -1 -17 -17 -31
-13 -17 4 10 12 8 16 -15 25 -33 13 -45 13 -45 0 0 -5 9 -10 20 -10 11 0 20
-7 20 -15 0 -8 -7 -15 -16 -15 -8 0 -12 5 -9 10 3 6 2 10 -3 10 -6 0 -12 -7
-16 -15 -3 -8 -10 -15 -16 -15 -7 0 -8 6 0 19 7 14 6 21 -3 24 -9 4 -9 8 2 15
10 7 6 10 -13 10 -25 0 -26 -2 -11 -18 14 -15 14 -21 3 -39 -15 -24 -30 -28
-22 -6 8 19 -7 19 -32 0 -23 -17 -43 -20 -26 -3 7 7 12 19 12 27 0 12 -3 12
-12 3 -14 -14 -62 -16 -53 -2 9 15 -2 12 -19 -6 -9 -8 -16 -11 -16 -5 0 6 -4
11 -10 11 -5 0 -6 -8 -3 -17 6 -16 5 -16 -10 -4 -9 7 -14 17 -11 22 3 5 -2 12
-10 15 -9 3 -16 12 -16 20 0 8 -7 14 -15 14 -14 0 -14 -3 0 -24 14 -21 14 -24
0 -36 -9 -7 -18 -10 -22 -6 -3 3 -1 6 5 6 7 0 12 5 12 10 0 6 -11 8 -25 4 -19
-5 -25 -2 -25 10 0 11 -9 16 -27 15 -25 0 -26 -1 -8 -9 15 -7 16 -9 4 -9 -18
-1 -42 22 -33 32 3 3 13 3 22 -1 15 -5 15 -4 3 11 -15 19 -31 22 -31 8z m155
-81 c3 -5 1 -10 -4 -10 -6 0 -11 5 -11 10 0 6 2 10 4 10 3 0 8 -4 11 -10z
m110 -10 c3 -5 -1 -10 -9 -10 -8 0 -18 5 -21 10 -3 6 1 10 9 10 8 0 18 -4 21
-10z"/>
<path d="M1340 420 c0 -5 5 -10 11 -10 5 0 7 5 4 10 -3 6 -8 10 -11 10 -2 0
-4 -4 -4 -10z"/>
<path d="M1455 400 c10 -11 20 -18 23 -15 7 6 -18 35 -31 35 -5 0 -2 -9 8 -20z"/>
<path d="M1520 410 c0 -5 5 -10 11 -10 5 0 7 5 4 10 -3 6 -8 10 -11 10 -2 0
-4 -4 -4 -10z"/>
<path d="M1605 410 c-3 -5 -1 -10 4 -10 6 0 11 5 11 10 0 6 -2 10 -4 10 -3 0
-8 -4 -11 -10z"/>
<path d="M1490 400 c0 -5 5 -10 10 -10 6 0 10 5 10 10 0 6 -4 10 -10 10 -5 0
-10 -4 -10 -10z"/>
<path d="M1375 390 c4 -6 11 -8 16 -5 14 9 11 15 -7 15 -8 0 -12 -5 -9 -10z"/>
<path d="M1545 380 c3 -5 8 -10 11 -10 2 0 4 5 4 10 0 6 -5 10 -11 10 -5 0 -7
-4 -4 -10z"/>
<path d="M1605 370 c-3 -5 -1 -10 4 -10 6 0 11 5 11 10 0 6 -2 10 -4 10 -3 0
-8 -4 -11 -10z"/>
</g>
</svg>
